/* XPM */
static char *_4eab858f79546a29fd773abe4d3df06VycMmEDFZZLbZums[] = {
/* columns rows colors chars-per-pixel */
"64 64 202 2 ",
"   c None",
".  c #160F1C",
"X  c #15111F",
"o  c #19131F",
"O  c #160F22",
"+  c #161222",
"@  c #1A1423",
"#  c #1F1927",
"$  c #231B26",
"%  c #261E29",
"&  c #2E232E",
"*  c #34262E",
"=  c #37282D",
"-  c #3D2C2E",
";  c #332630",
":  c #352A32",
">  c #3C2D31",
",  c #3C3236",
"<  c #3C353A",
"1  c #3F393E",
"2  c #402D2F",
"3  c #402F31",
"4  c #433133",
"5  c #4B3636",
"6  c #40373B",
"7  c #41393C",
"8  c #4B3D3D",
"9  c #4C3639",
"0  c #533C3A",
"q  c #4D403F",
"w  c #5E433C",
"e  c #62473D",
"r  c #724E3F",
"t  c #4D3D41",
"y  c #583F40",
"u  c #504041",
"i  c #5B4242",
"p  c #5D4A45",
"a  c #5A524F",
"s  c #5C5551",
"d  c #6C4E4A",
"f  c #644746",
"g  c #685047",
"h  c #63514A",
"j  c #745242",
"k  c #795645",
"l  c #74534C",
"z  c #7B574D",
"x  c #775B4E",
"c  c #724D58",
"v  c #6E5B51",
"b  c #655751",
"n  c #735253",
"m  c #7C5B53",
"M  c #735C54",
"N  c #7B685E",
"B  c #766459",
"V  c #6F6660",
"C  c #756C63",
"Z  c #786D65",
"A  c #845E4D",
"S  c #885F4B",
"D  c #835E55",
"F  c #8D644C",
"G  c #91654C",
"H  c #94684E",
"J  c #9A6B4F",
"K  c #8A6454",
"L  c #8C6559",
"P  c #816859",
"I  c #936D55",
"U  c #9C6D52",
"Y  c #926659",
"T  c #956B59",
"R  c #9B6D5A",
"E  c #926657",
"W  c #8A725F",
"Q  c #9C7155",
"!  c #9C745A",
"~  c #967056",
"^  c #A37355",
"/  c #A3755A",
"(  c #A67A5A",
")  c #AC7A5A",
"_  c #AB7756",
"`  c #B17D57",
"'  c #B27D5A",
"]  c #8F6E64",
"[  c #906F64",
"{  c #8A7666",
"}  c #947D6A",
"|  c #947A65",
" . c #BB736F",
".. c #B5815C",
"X. c #BB845C",
"o. c #BF895F",
"O. c #8B8374",
"+. c #918576",
"@. c #9A8672",
"#. c #968E7C",
"$. c #9F8C76",
"%. c #AA876A",
"&. c #AA896B",
"*. c #A0876F",
"=. c #BB8964",
"-. c #B78765",
";. c #BE916C",
":. c #A28F79",
">. c #A4927D",
",. c #AF9273",
"<. c #B39374",
"1. c #B4967A",
"2. c #B2987E",
"3. c #BE9C7A",
"4. c #B99575",
"5. c #C1895F",
"6. c #C1865F",
"7. c #C48E64",
"8. c #C88F66",
"9. c #C69166",
"0. c #C99267",
"q. c #C69269",
"w. c #CA9469",
"e. c #CC996E",
"r. c #C69B74",
"t. c #CE9D72",
"y. c #C29B76",
"u. c #D19E73",
"i. c #D19175",
"p. c #C3A17E",
"a. c #CFA177",
"s. c #D4A57A",
"d. c #D5A87C",
"f. c #D3A375",
"g. c #C76F8E",
"h. c #C57B89",
"j. c #EB7DA1",
"k. c #9E9582",
"l. c #AE9E8D",
"z. c #B69B85",
"x. c #B69991",
"c. c #BE9F96",
"v. c #A9A28A",
"b. c #BEA485",
"n. c #BFAC8B",
"m. c #B4A58A",
"M. c #AFA990",
"N. c #BDA397",
"B. c #B3AB92",
"V. c #BBAA95",
"C. c #BFA799",
"Z. c #B6A997",
"A. c #C08E81",
"S. c #DA889B",
"D. c #C49494",
"F. c #E58B9C",
"G. c #E0849B",
"H. c #E79496",
"J. c #EB9B9C",
"K. c #E0999E",
"L. c #C7AD8B",
"P. c #C6A884",
"I. c #DBAF82",
"U. c #D6A886",
"Y. c #DDB285",
"T. c #D6B28A",
"R. c #DAB48B",
"E. c #DBB98E",
"W. c #C5A396",
"Q. c #C4A399",
"!. c #C2AD93",
"~. c #DDAA95",
"^. c #DCB593",
"/. c #C5B193",
"(. c #E0A98C",
"). c #E1B486",
"_. c #E1B689",
"`. c #E4BC8E",
"'. c #E8BF8F",
"]. c #E6B192",
"[. c #E9B395",
"{. c #E6BE90",
"}. c #E8BE91",
"|. c #EAB098",
" X c #EAA39A",
".X c #D897A3",
"XX c #E38EA4",
"oX c #ED8CA2",
"OX c #EF89AA",
"+X c #E886A7",
"@X c #F282AA",
"#X c #F289AD",
"$X c #F085A7",
"%X c #E295A9",
"&X c #E792A5",
"*X c #F091A4",
"=X c #CFAFA4",
"-X c #C2B0A6",
";X c #D6A1A8",
":X c #E7C091",
">X c #E9C091",
",X c #E9C192",
/* pixels */
"                                                                                                                                ",
"                                                                                                                                ",
"                                                                                                                                ",
"                                                                                                                                ",
"                                                                                                                                ",
"                                                                                                                                ",
"                                                                                                                                ",
"                                                                                                                                ",
"                                                                                                @ @ @ @ @ @                     ",
"                                                                                                < 7 7 7 7 <                     ",
"                                        o o o @ @ @                                         . , C O.O.O.O.C < @                 ",
"                                        < 7 7 7 7 6                                         , s #.B.B.B.B.O.7 @                 ",
"                                    @ < C O.O.O.+.Z < .                                 . , C #.v.M.M.B.B.O.7 @                 ",
"                                    @ 7 O.V.Q.Q.V.#.a <                                 < s #.V.N.c.c.N.B.O.7 @                 ",
"                                    @ 7 O.Q..X.Xx.k.O.V < O + @ @ @ @ @ @ @ @ @ + X X < C #.v.C..X%X%X.XN.O.1 @                 ",
"                                    @ 1 O.Q.XX+XD.x.l.+.p 4 9 8 8 8 8 8 8 8 8 8 8 9 4 p @.m.M.N.XX#X#X%XQ.O.1 @                 ",
"                                    @ 1 O.Q.XX$X+XS.x.:.! Q %.<.<.<.<.<.<.<.<.<.<.&.! Q -.4.m.c.S.$X#X%XQ.O.1 @                 ",
"                                    O 7 O.Q.XX@X@XXXD.z.e.u.).,X,X}.,X,X}.,X,X,X,X_.s.w.7.y.b.W.S.j.OX%XQ.O.1 @                 ",
"                                    @ 7 O.Q.XX@X@XoX~.T.Y.Y.`.{.{.{.{.{.{.{.{.{.{.`._.Y.I.Y.R.~.F.j.OX%XQ.O.1 @                 ",
"                                    @ 7 O.Q.XX$XoXJ.[.'.{.{.'.'.'.'.'.`.'.'.'.'.'.'.'.'.'.'.'.].H.F.%X;XC.O.1 @                 ",
"                                    @ 7 O.W.XXoX X].{.'.{.{.'.'.`.`.`.`.`.`.`.`.'.'.`.'.{.'.'.`.].~.=X-XZ.O.7 @                 ",
"                                    @ 1 O.W.K.J.[.'.`.`.'.'.'.'.`.`.`.`.`.`.`.`.'.'.`.`.`.`.`.'.'.E./.V.m.{ 6 @                 ",
"                                    @ 1 O.!.~.[.{.'.`.`.`.`.`.`.`.`.`.'.'.'.`.`.'.`.`.`.`.`.`.'.:XR.r.;.;.I 4 @                 ",
"                                    @ 6 { P.E.'.'.`.`.`.`.`.`.`.`.`.`.'.'.'.`.`.'.`.`.`.`.'.`.`.{.Y.u.8.6.G 4 @                 ",
"                    @ @ @ @ @ @ @ @ @ 4 I r.Y.{.{.`.`.`.`.`.`.`.`.`.`.`.`.`.`.`.`.`.`.`.'.'.'.'.'.`.Y.s.7.G 4 @                 ",
"                    8 8 q 8 4 4 4 = $ 3 G 0.Y.{.{.`.`.'.{.{.'.`.`.`.`.`.`.`.`.`.'.`.`.'.'.'.'.'.'.`.Y.s.7.G 3 +                 ",
"                @ 9 | <.<.&.~ G G j = 3 G 0.Y.{.{.`.`.{.}.}.{.'.'.'.'.'.`.`.'.'.'.'.`.'.}.}.'.'.'.Y.t.7.X.F 3 +                 ",
"                8 B p.,X_.d.7.X.X.G 3 > G w.Y.{.{.'.'.T.3.3.d.Y._.'.'.'.'.`.'.'.`.'.'.T.3.3.T.{.{.I.q.X.X.U w >                 ",
"            @ 8 | p.E._.a.7.X.X.X.G > > G w.Y.{.{.{.}.3.v g ( u.Y.'.'.'.'.'.'.'.`.'.'.3.v v 3.,X,XI.q.X.X.' Q k > @             ",
"            @ u 1.,X_.r./ H ^ ) ) S > > F =.s.Y.`.{.,X<.7 = F w.Y.{.{.{.{.{.{.'.'.{.,X,.7 7 ,.,X,XI.q...) ' X.H 4 @             ",
"            @ u 1._.u./ w 0 z T T l : : z / =.t.Y.,X,X<.7 = G w.Y.{.,X,X,X,X,X}.'.{.,X,.7 7 ,.,X,XI.q.' R R ' H 4 @             ",
"            @ u <.Y.q.F = ; d L L d : : d T ' q.Y.}.[.A.c f U w.Y.R.3.<.<.<.<.3.T.{.}.3.n c A.[.}.Y.q.) Y Y ) H 4 @             ",
"            @ u <.Y.q.F = & d L L d : : d T ) q.Y.[.J.S.g. . .0.Y.y.M 7 9 9 7 v 3.,X,XU.h.g.G.J.[.Y.q.) Y Y ) H 4 @             ",
"            @ u 1.).q.H w 5 f l D f * : l / ' 9.s.(.J.*X*XH.i.u.).3.h : : : : h 3.,X'.[.J.*X*XJ.(.s.7.) Y K K k 3 @             ",
"            @ u 1.).9._ J k 9 >     $ > F ....X.7.t.(.|.|.].I.Y.'.P.} N N N N } P.{.'.{.|.|.|.(.t.7.X.) T n 0 >                 ",
"            @ 8 } 4.;.7.X.G 3 +     @ - k U / ' X.9.s.Y.`.:X{.{.{.R.b.2.2.2.2.b.R.{.{.'.'.'.Y.a.-._ ) R m i ; @                 ",
"                8 v 4.s.7.G 3 @         - 0 A / ..o.7.t.Y.:X:X{.{.`.E.T.T.T.T.E.`.{.{.{.:XY.t.-.R Y Y z 9 ;                     ",
"                + t <._.u.I 4 @         @ * i l F Q ' 9.s.Y.Y.Y.R.E.E.E.E.E.E.T.T.T.T.T.T.d.7.' R K l i ; @                     ",
"                @ 8 <.}._.%.8 @             ; : > e Q 5.9.w.0.r.P.n.n.n.n.b.z.2.2.1.1.1.1.4.=.X.' F 0 *                         ",
"                @ u <.,X,X<.t @             @ @ + * j H G G G ~ *.>.>.>.>.@.{ N N N N N N P K G G k > @                         ",
"                @ u <.,X,X<.t @                 + $ * 3 > - - 0 m [ ] ] ] M t : > > > > > > > 3 3 -                             ",
"                @ 8 &._.'.<.t @                 3 4 > > > - - 0 z E Y Y Y z 0 - - - - - - - - > > >                             ",
"                @ 4 ~ u._.<.t @             X - k H G F F F F H ^ ) ) ) ) ^ H G G G F F F F F G G k > +                         ",
"                @ 4 G w.).<.t @             - w U o.7.9.q.q.q.q.9.=.X.X.X.X.X.X.7.q.q.q.q.q.9.7.5.U w >                         ",
"                @ 4 G w.).<.t O         + > k U ` 7.s.Y.Y.I.I.I.I.s.7.X.X.X.X.7.s.I.I.I.I.I.Y.s.7.' U k 3 @                     ",
"                @ 3 k ( y.&.f >         - w U 7.7.t.Y.'.'.'.'.'.'.Y.t.7.o.o.7.t.Y.'.'.'.'.'.'.Y.t.7.7.H 4 @                     ",
"                    2 w L ! E F     + > j J ` 9.s.Y.`.'.'.'.'.'.'.`.Y.s.7.7.s.Y.`.'.'.'.'.'.'.`.Y.s.9.G 4 @                     ",
"                    @ * d T ) )     + 4 G X.7.t.Y.{.'.'.'.'.'.`.'.'.{.I.9.9.I.{.'.`.`.'.'.'.'.'.{.Y.w.G 4 @                     ",
"                    @ ; d R ) J 5 + + 4 H 9.s.Y.`.'.'.'.'.'.`.`.'.'.{.I.9.9.I.{.'.'.'.`.`.`.`.'.{.Y.w.G 4 @                     ",
"                    @ * i l S k 5 & # 4 H w.Y.{.'._.Y.Y._.'.`.`.'.{.{.I.9.9.I.'.'.'.`.'.`.'.'.`.Y.s.7.G 4 @                     ",
"                        * : - 5 f y & 4 H w.Y.{.{.Y.t.t.Y.{.'.`.'.'.{.I.9.9.I.'.'.'.`.'.`.'.{.Y.t.9.7.G 4 @                     ",
"                        @ @ @ * l l : 4 H w.Y.{.{.Y.t.e.d.Y.`.`.E.E.{.Y.t.t.Y.`.Y.Y.`.'.'.`.Y.s.7.' U k > @                     ",
"                            @ = l l : 4 H w.Y.{.'._.Y.s.e.u.Y.E.L.L.E.`.Y.Y.`.Y.u.u.Y.{.{.Y.t.7.X.U w >                         ",
"                            @ * i i & = j ( t.).'.:X,XY.w.w.).T.:.@.p.).'.,X,Xd.( ( U.,X,XY.w.' U j = +                         ",
"                                * * $ $ = e ( f._.,X,XY.w.e.).3.b p ( u._.,X,X3.g g 3.,X,X).w.U w =                             ",
"                                @ @ @ @ + - k ~ &.<.<.&.Q ! &.{ , * r Q &.<.<.W , , { 1.<.&.! k : +                             ",
"                                            - 4 9 8 8 9 4 4 8 < % $ = 4 9 8 8 , % % , 8 8 9 4 >                                 ",
"                                            + + + + + + + + + @ @ @ @ @ + + + @ @ @ @ + + + @ @                                 ",
"                                                                                                                                ",
"                                                                                                                                ",
"                                                                                                                                ",
"                                                                                                                                ",
"                                                                                                                                ",
"                                                                                                                                "
};
