/* XPM */
static char *a0502c6b7a5847928a3ca5ca81115b047ApqXkj3SpU6LBxG[] = {
/* columns rows colors chars-per-pixel */
"64 64 98 2 ",
"   c #8EA67B",
".  c #8FA87C",
"X  c #90A77E",
"o  c #91AA7E",
"O  c #94B17F",
"+  c #9C9583",
"@  c #A19A89",
"#  c #94AD82",
"$  c #98AF86",
"%  c #96B282",
"&  c #99B386",
"*  c #9CBB86",
"=  c #9CB58A",
"-  c #9EB98A",
";  c #A0BF87",
":  c #A1BC8C",
">  c #ACA695",
",  c #AEA897",
"<  c #AFA998",
"1  c #B2AC9B",
"2  c #B6B09F",
"3  c #BBB4A4",
"4  c #BEB8A6",
"5  c #BFB9A8",
"6  c #C3BDAC",
"7  c #9FC087",
"8  c #A0C287",
"9  c #A3C38B",
"0  c #A6C98C",
"q  c #A9CB8F",
"w  c #ABD18E",
"e  c #A6C290",
"r  c #AACD90",
"t  c #AEC498",
"y  c #B2C79C",
"u  c #B3CB9B",
"i  c #ADD290",
"p  c #B0D992",
"a  c #B5D19B",
"s  c #B9D49E",
"d  c #BBD99F",
"f  c #B9CFA1",
"g  c #BFCDA9",
"h  c #BCDAA1",
"j  c #C7C0AF",
"k  c #C1CEA9",
"l  c #C2D7A6",
"z  c #C4D5AA",
"x  c #C6D9AB",
"c  c #C9DDAC",
"v  c #C7C1B2",
"b  c #CAC3B3",
"n  c #CEC9B7",
"m  c #CDC7B8",
"M  c #CECAB8",
"N  c #D3CCBD",
"B  c #CCD5B3",
"V  c #CDD8B3",
"C  c #CFD2B9",
"Z  c #D0DBB7",
"A  c #D4D6BC",
"S  c #DAD3BF",
"D  c #D5DABE",
"F  c #D9DBBE",
"G  c #D5CFC0",
"H  c #D7D0C1",
"J  c #DBD5C5",
"K  c #D6D9C1",
"L  c #DDDCC3",
"P  c #DDD7C9",
"I  c #DFD9C9",
"U  c #E0D9C7",
"Y  c #E1D9C9",
"T  c #E3DCCA",
"R  c #E3DCCB",
"E  c #E5DCCB",
"W  c #E1DBCD",
"Q  c #E3DDCE",
"!  c #E5DECE",
"~  c #E8DFCF",
"^  c #E7DFD0",
"/  c #DFE0C3",
"(  c #DFE0C4",
")  c #E1E1C7",
"_  c #E2E3C8",
"`  c #E7E1CB",
"'  c #E7E2CC",
"]  c #E9E0CE",
"[  c #E6E0D1",
"{  c #E9E2D1",
"}  c #ECE3D2",
"|  c #EAE5D3",
" . c #EAE3D4",
".. c #EBE4D4",
"X. c #ECE5D4",
"o. c #EEE8D8",
"O. c #F1E7D6",
"+. c #F1EBDA",
/* pixels */
"Y R { Y b 4 1 1 1 1 1 1 1 6 H ^ ^ ^ [ Y N 6 2 < < , > > < < > , 1 3 4 b R o.o.o.X.X.+.X.Y N b 4 1 1 , > @ + + < H X.X.{ ! Y J J ",
"I Y ! Y N 6 3 1 1 1 1 2 3 6 H Q ! ! ! P N b 5 3 4 4 3 3 3 3 3 3 3 4 6 M J { X.X.X.X.+.X.! J M 6 2 1 1 1 > > , 4 J  .{ [ ^ Q I J ",
"J J P P I G 6 3 1 , 1 3 6 m H Y ! ! I J H N N N H H G N N N G N 6 6 M N N J ' X.| | X.X.X.! H b 3 1 3 6 v m N J ! [ Q Q [ ! Y J ",
"J J J Y ^ Y N j 4 4 6 j M H J Y Y U J J J J J J K K D D D D D A n N H J H H Y ! ' [ { ..X.{ I N b 6 b N H W { { ^ W I W ^ ^ W Y ",
"J J Y ! ~ ! Y J H S H J U Y E Y H H U Y J J Y L g u d h h d d z A Y Y E Y J H H Y ! ! ! ! W P H J J J U R ! ! W P P P W ! ! W Y ",
"M C A F F L ' { { ` L / ' ` L F S J E E U Y ] F u 9 w w q q q s F { { ] { U C M I ! ! Q Q I A A F L ` ] ] ! Y I J J Y I L D A A ",
"y y u a d c ) X.} ( c c _ _ x z L ] ] E E ! X.L u 0 0 0 * * 9 u A { X.X.{ L l l L ~ ! ! ! L z d d c L ] ] ~ ! E E E ! L x d s u ",
": 9 9 9 q a V L L V a a Z Z u u Z _ ] ] { ] ) V y 9 9 : & & - t B D L L F B a a V L E E L B a w w a V F F L E ] ] ] ] F d w 0 0 ",
"- - - - - : t y u y 9 e y y e e u x ) O.O.R z t : - - - = = - e y a u u s u e 9 u z L L k y r 0 0 r u d d c L ] ] ] ] F u 9 : - ",
": : - - = = - - : : - - - - - - 9 y V ) R V t - : : : - - - - : 9 9 : : 9 9 - - 9 u B B t - 9 9 : : 9 0 q a B F F F F B y : - = ",
"q q 0 9 - = = = - - - - - - - - - : y f f y : : 0 r q 0 - = - - - - - - - - - - - : y y : - - - - - - - - 9 y u u u u y e - - = ",
"q q 0 9 - = = - - - - - = = = - - - : 9 9 : - : q w w 0 : - = - : : - - : : - = = - : : - = = = = - - - - : : 9 9 9 9 9 : - - = ",
"9 9 9 - - - - - - - - - - = = - : : - - - - - - 9 9 9 9 : : - : q q : : q q : = = - - - - = = = = - : 0 0 0 : - - - - - - - = = ",
"* * * - - - - - - - - - - = = - 9 9 - = = = - - & * * * 9 : - - 0 9 - - 0 0 - - - : : : - = = - - : 9 0 q q : = = - - - - = = = ",
"# % * * - - - - - - - - - = = - : : - = = - - & # O * * 8 - - & % % * * % % = : q i i q - = = - 9 9 9 9 q q : - - - : : - - - = ",
"# $ & * * * - - = - - - - = = - - - - - - - - & # o % * & & - $ X o * * o # $ : i p i q 9 : - - 9 9 7 * 9 : - = - - 9 9 - - = = ",
"= & # # & & = - = = - - = = - - - - - - : : - = = $ o     # & = # # * * % # = : i i 0 9 q q : - - 8 7 * & % # # - - : : - - - = ",
"- - & & * - - - = = = = = = - - - - - - : : - = - & #     # & = $ & & & & & = - 0 0 7 9 q q : = & * * & & # # # - - = & = - - = ",
"= - 0 q q 0 - = = = = = = = - - - - = - : : - = - = & $ $ & = = = $ o o $ = - = % % * 8 9 9 - & o . o % * - = = - & o X & - - = ",
"= : q i i q : = = - - : : - - - = - = - - - - = - - - - - = = = = $ X X & - - & # # & * & & = & #   X # : 9 - = - & # # & - - - ",
"= - 9 9 9 9 - = = : q i i q : = = = = = - = = - - - - - = = = = - = & $ = = = = & $ # .   . & = & $ $ = - : - = = - 9 9 - - : 9 ",
"- - * * * - - - = : q i i q : = = = = - : : - - - - - - : : : : - = - - - - - = - = # o o % - : - - - - - - - - - 9 q 0 - - : 9 ",
"- - - * * - 9 : - - 9 9 9 : - = = = = : q q : = - - = : q i i q : = = - : : - = - = & = 9 q w q : = - - - - - - 0 q 9 : - = = & ",
"- = & & * - 9 : - - - * & & - - - - - : q q : = = - - : q w q 0 - = = - 9 9 - - - - = : i p i q : = = - - - - - 9 9 * & - = $ # ",
"- & X o & - - - - - * * # # - : - - : 9 9 9 - = = - : 9 9 8 & % = = = - : : - - - = = : i i 0 9 - = = = - - - = & & % & = & # o ",
"- & X   % & * - * * * & # # - : - - * * * * - - = - 9 8 * % # # & = = - : : - = - - = - 9 0 8 * - - = = = - = = & $ $ $ = & # # ",
"- = & # . o & - 7 * % # & = - : - & # O * * * - - - - * O o $ & = = = - : : - = = = - = % & * * * - - = = = = - - - = = = = & & ",
"- - - $     % & & % # $ = - - - - & # # & * * & - - & % o # & - - = = - - - - = = = - & # # % * * * - - - = = - : : - - : : : : ",
"= - - = & # .       $ = = = - - : : = $ # o o % * * # # $ = - - - = = = - - = = = - = = & $ # % * * * - = = = - : : - : q r q 0 ",
"= - - - - &       o & = = = = - 9 9 - = # X X # % % # # = - - - - = - - - - = = = = = = - & # # % * * & = = = - - - = : r i q 0 ",
"= - : : - = & & * - - = = = - - : : - = & & $ $ o o # = = - - - = - - - - - - = = = = = - = & $ # o o # & = = = - - = - q q 9 : ",
"- - : 9 : - - - 9 9 - - - - - - - - - - - - - $ X X $ - = = - = = - - - - - - - = = = - : : : - # X X # = - - = - - : 9 0 0 - - ",
"- - - - : : - - : : - - 9 9 - = - - - - - = = = $ $ = = = = = = = = = = = - - - - = = : q r r 9 - $ $ = - : - = = : q q 9 9 - - ",
"- - = - : : - - : : - - 9 9 - = = = - - - = = = = - - - - = = = = - : : : : : - - = = - 0 q q 0 - = = - : : - = = : q q * & * * ",
"= = = - : : - - : : - - : : - = = = - - = = = = = - - - - = = = = : q i i q : - - = = = & * - : - = = - : : - - = - 9 * o . # & ",
"= = = - - - - - - - - - - - - - - - - - = = - - = - - - - = = = = : q i p i : - = = - = # # & - - = = - - - - = - = & O     # & ",
"= = = = - - = = - - = = - - = - 0 0 - = = - - - - - - = = = = - = - 9 0 w q : - = - - - = = = - = = = = - - - - - &       # $ = ",
"- - - - = = = = = = = = = = = - 9 0 - - = - - - - = = = = = = = - = & * 9 0 : - - - - - - - - - = = = = = = - - - &     o $ = = ",
"0 9 9 : - = = = = = = = = = = = & & * - = - - - - = = = = = = = - & # # * 9 0 9 - = = - = - - - - = = = = = - - - - & $ $ = = = ",
"0 0 9 : : - - = = = - - - - = = # # * * - - - - - = - - = - - - - & # o & 9 0 0 - = = = - - - - - - : : : : - - - - - - - - - = ",
"- - - : 9 9 - - = - - - - - - = # # * * * - - - = - - - = - : : - = # % * - 9 : - = = - - - - - - : q i i q : - - - - - : : - = ",
"& * * : 0 0 - = = - - - - - - = $ # & * * * - - = - - - = - 9 9 - = & & & & & & = = = - - - - = - : q i p i : = = - - - : : - = ",
"% & & - : : - - = - - - - - - - = & # # # & = - = = - - - - : : - = = & # o o # & = = = - - = = = - 9 0 i i : = = = = - : : - = ",
"$ & & % & & = - = - - - - - - - - = $ # # $ = - - - - - - - : : - = - & # o   # & = = - - - - = = = & * q q 9 : - = - - - - - = ",
"= & o   . # & = = - - - - - - - - = = = = = = - : : - = = - : : - - - = = & $ & = = = - : : - = - & # % * 0 q q : - - - - - = = ",
"- & o     # = - - - - - - - - - - - = = = = = - : : - = = - - - - - = - - - - = = = = - 9 9 - = - & # o % * 9 0 : - - - - = = = ",
"= = & & $ = : : - = - - - = = - - - - = = = - - : : - = = = - - = = = = - - - = = = - - : : - = - = = #   . o & - - - - - - - = ",
"= - - - = - : : - = = - - : : : - - = = = = - - - - - - = = = = - - - - = = = = = = - - - - - = - - - & X     # = - - - - - - - ",
"= = = = = - : : - = = - 0 q r q : = = = - - - - - - = - - - = = - - - - - = = = = = - - - - = = = = = = $ $ $ & - - - - - - - - ",
"= - - - - - - - - = = : 0 q w q 9 : : : - - = - : : - - - - = - - - - - - = = - : : - = - - = - : : - = = = - - = - : : : - - : ",
"= - : : - - - - - = - - 9 0 9 9 q i i q - = = : q q : = = - - - - - - - = = = : q q : = = = = : q q : = = = - = = : q q : - - - ",
"= - : : - - - - - = - - - - * 9 q i i q - - - 9 q q : = = - - - = = = = = - : 9 q q 9 : - = = - 0 0 : - - = - - - : 9 9 - = - - ",
"= - : : - = - - = = - = & & * - 9 9 9 9 - - q q 0 9 - = - - - = = = - - = : q q 0 0 q q : = - & % & 9 0 - - : : 9 : % # & - - - ",
"= - - - - = = = = = = = & & & * * * * * = - q q 9 * - = - - = - : : - = = - 0 9 * * q q : - - & # # * 9 : : : 9 0 : o   $ - - - ",
"= = - - = = = = - - - - = = & & * * * * * * 9 9 8 * - = - - = - q q : = = = % # o % * 9 - - - = & # o % 9 0 9 : : * # # & - - - ",
"= = = = = = = = - - - - - = $ $ & = * * * * * * * & = = - - - : q q 9 : - & #     o * * & & - - - & X # 9 0 * & & & $ $ = = - - ",
"= = = = - = = - - - - - - - = & & % # % & - * * % # & - = - - * 9 0 q q : = & #   o * * # # - : - = $ & : * o . # $ & = = = - - ",
"= = = - - : : : - - - - - - - = & $ # # & & & % # # & - - - * 7 * 9 0 0 - = = & # o % % o # : 9 - - - = & % .   # & = - = - - - ",
"= = = - 9 0 q 0 : = - - - - - = = = = $ # o   o $ = = - - - * * 7 * & % = = = = & #     # - : : - - - & o   # & - : - - = - : 9 ",
"= = = - 0 q 0 9 - - - - - - - - - - - = # X   # & - - - - = & & * % o # & - - - - $     $ - : : - = = $     $ - 9 9 - = = - : 9 ",
"= = = - 9 ; % % * : - - - - : : - - = = & $ & & - - - = = & o     o # & = - - - - = $ $ = - : : - = = = $ $ = - : : - = = - : : ",
"= = = - - & o o * : - = = - : : - - = = = - - - - - - = = $ X     o & - = - - - - - = = = = - - - = = = = = = - - - - - = - - - ",
"= - - = # # o o & & - = - - : : - = = = = = - - - - = = = = $ $ $ & = - = = - - - - - = = = - - - = = = = = = = - - = - = = - - ",
"= = - & # o # # % & = = - - - - - = = = = = = = = = = = = = = - - - - - = = = = - - - = = = = = = = = = - = = = = = = - = = = = "
};
