/* XPM */
static char *_ebaa63d25dd4be3aeba4463fbd8537eyhvSGFeSSjqmrGg0[] = {
/* columns rows colors chars-per-pixel */
"64 64 41 1 ",
"  c #6DC7EA",
". c #6EC8EA",
"X c #73CBEC",
"o c #7ACEEE",
"O c #7DD0EF",
"+ c #74CFF1",
"@ c #79CFF0",
"# c #76D1F3",
"$ c #7CD2F3",
"% c #81CFEE",
"& c #83D1EF",
"* c #89D3EF",
"= c #80D3F2",
"- c #87D3F1",
"; c #83D4F3",
": c #87D5F2",
"> c #82D4F4",
", c #84D5F4",
"< c #85D7F7",
"1 c #88D3F1",
"2 c #89D6F3",
"3 c #8DD6F2",
"4 c #8AD6F4",
"5 c #8CD7F4",
"6 c #87D8F7",
"7 c #88D8F7",
"8 c #8AD8F6",
"9 c #8ED8F4",
"0 c #8FD9F6",
"q c #8EDAF7",
"w c #91D7F3",
"e c #93D8F3",
"r c #94D8F3",
"t c #93DAF6",
"y c #92DBF7",
"u c #94DBF7",
"i c #95DCF7",
"p c #96DCF7",
"a c #98DBF5",
"s c #9BDDF7",
"d c #9DDDF7",
/* pixels */
",,,,,,,,,,,,,$X ...X+########+X..........X+##$>86800000000,,>,,,",
",;=$$$$$$$=;,=oX...X+########+X..........X+$$$>6,600000008::4,,,",
",=oXXXXXXoo=:4:$X  X+########+X..........X$$$$>>>,4008000212304,",
",$X  ....XXo=:4:oXXX+########+X.........Xo=,,,>$$$,,,,,,,:&&12=$",
",$X ......XXXo:52-$+#########+X........X@=0tt0,$$$$$$$$$$$oXXoXX",
",$X......... XO:54$#######+++X.........o=0upt4>$$########+X.....",
",$X...........Xo=>$######+X...........Xo5pst,$$$##########++++++",
",$X..........X.o$>$$$$##$$oXXX......XXo1usu8$###++++++++++######",
",$X ........X++$,8>$$$#$$>=$$$X  ...Xo3rsp0>$##+XXXXXXXXXX######",
",=oX..XX...X+##$804,,,>>88;$$$oooXXXo&rsu0>$$##X..........X#####",
"44:=X.XXX. .+##$0uttttttu5oXXo=::=oo%1uu,$$$##X............X####",
":22=oXooXXXo$$$>tuupppppu2o  X$:421**3ut$####X..............X+++",
"o&$$oO23&%=:400tut000tt08=X  .Xo:0errust$##+X................XXX",
"Xo$$$=231-40uuuttt088888>$oXXX.o=4ussat4$##+X...................",
"XX$;;===;,0uuu0400tt4,,,>$#+++++$>tsdu,$###+X...................",
".X$>,>$$$>8008,>,8t0>$$$$$#++####$8tu0$###+X....................",
"XXo$>>$##$$$$$$$>,8,$$$$$#XXXX###$$>,>$##+X.....................",
"XXX$,,$$$$$$$$$$$,,>$###+X....X+###$>>$##oX.....................",
"XXX$,8>$$$$$$$$>>,,>$##+X......X+##$88$#ooXX....................",
"XXX$40,,,,,,,,,,488,$##+X..... X$$#$80>$&%&ooXXX................",
"...o,00880008880tt0,$##+X..... X>,$$>,45www33-ooXX..............",
"...o:00088688880tpt8$##+X...XXX$80$$$>:23323w3=ooX..............",
"..Xo$,66$$$$$$$>0tu0$###+X..Xo=8tt,$$$oooooo-2:=oX..............",
"..XoO=>>$######$60u0>$##$#oXo=0tpt,$$$X    Xo&--OoX.............",
"..Xoo$$$#######$>4tt8$$$$$$$$:0ut4$$$#X.....Xo&--OX.............",
"..XoO$#########$$,tu0,$$$>>>>,tt4;$##+.......Xo&-=X...... ......",
"..Xo=:$########$$,tuu8$$$>,,,808>$###+X.......XoOoX.....   .....",
"..oO:;$########$$:tuut>$>,,88808$####+X........XooX.....XX .....",
".X=:=$$#########o&3uau44444880t0$####+X........Xo$ooX..XXXX.....",
".X=:$$#########+oo23e322:::=-2t0$####+X.......XXO==OX..XooX.....",
".Xo$$$$#######oooO====&ooooXXo35$####+X......XXo2e3-X..XXoX.....",
"XXo=>$$######+ooo$ooooXXXX.  o24$####+X......XX&wau2o..XoXX....X",
"Xo-4,>$#####ooooooXXXXXXXX.. o24$######X.....Xo&rau2o.XooXX...X+",
"o&35;$$$$$$$Oo%o$oX..........o24$#######XXXX.Xo1rsa3Ooo&ooX..X+#",
":25:ooo=40t02232=oX...XX.....o24$#######+++++#$,usat05t5>$#+++##",
"44:$X.o$4ttt0tu3=oX .X++X....o:4$$########$$$$$,tut0ttu0,$$$$$$$",
",=oXX.Xo$>,4tuu3&oX ..XX.....X=,,$$######$$$$$$>88>$,444>$$>80,>",
",$X ...X+#$;23t2oXXX.........X@;,6>$$$$$$$>,,,,>>$$#$$>>$$>,0t88",
":=X  .X+##$$oo:=oXXXX.........Xo,00000008880008,$$##$$$$$$>,,445",
",=o..X#####+.X$$XXXoX..........o>0ttttppt88,,408$########$>,,445",
"4,$+++#####+.X$$XXXoX ........X#$>0088tu0,@ooo:4>$$######$>,4233",
"4,$########+Xo==oXXXX.........X++$88>>40,$X  X=:=$$######$$,2333",
"4:@+#######+oo::oXXX.  ........Xo$48$$$$$#X  Xo$oX########$$2333",
"4;oX+#######oo23-oX............Xo=4,$###+X...XooXXX+#######$,533",
",=oX+#######o%3uw1oXX......... X=24>$##+X....XoooXXX+######$>433",
",$oX+#######o%3uu3-oX.........Xo:4=$$##+X....XoooXX.+###++++$=:2",
",$oXX+######o%3ttt2=X....... X@=,=oX+##+X....XooXX.X+###XXXXXo$-",
",>$oXX+####$o&35322=oX......Xo:,=oX.+##+X...XXooXXXX###X.... Xo=",
"4,,$oXX+###$:352&O$$ooX....X$:52oX.X+####X.Xoo$ooo+###X......XO=",
"488:oXXX+#$>5t2=oooo$oXX..Xo:52=X .X+####+XX$$$$&=$#+X. .....XO=",
"488:oXXX+$$,t3-oooXXo$oo.Xo=52oX...X+#####+$>>$$::$+X.. .....XO=",
";,4,$oo+$$6051oXXXXXoo$$oo=45-X ...X+#####$$6,$>48>$oXoooX..Xo$=",
"o$:4,;>>,8t0-oXXXX..Xo=222504=X ....+####$,808,4tut8:::::$XXo$$=",
"Xo>888880tu5oX.......X=20tut5=oXXXXo$$###$8ttt0ttt02::::4:oo$===",
"X@>800ttuut4o........Xo&3tuut2$ooo$=>>$##$8tuuut0,$ooooo:4::;;==",
"o@=,800ttt0,o..XXXX..Xo&3uur3-Ooo$$>,,>$$$8tput8,$X    X$:::,,;=",
"Xoo$>,,,,,8>$++++++X.X$:tuu3oXXXXX#$>,00,,8tut,$oX......Xooo:4,;",
"ooXo@$$$$>,,$$######oo=4tut:o..XXX+$$>80,,80t4$+.........  X-4=$",
"$$X.XXXo$,808,$#####$>68tu0,$+++++##$$$$$$804>$+.........  X::oX",
",$oX.  X$>8008$#$$$$,6,6006$$+++++++++###$88,$$+..........Xo:=X ",
",>=@X  X+$8008$$$>>,6,$$,6$#XXXXXXXXXX+#$>88,$$+. ...... X$:,=X ",
",,,=oXXo$$8008$$,6,>>$$$>>$+.........X+#$>884,$$ooooXXXXXo:4=@X.",
",,,>=$$=>,6886,,6,$$$$#$>>$+X........X+#$$,8000222:==$$==:4:oX..",
",,,,,,,,666666688>$####$>>$+X........X+##$>8tutttt04,>,,400-X .."
};
