/* XPM */
static char *d9db0fbb6b064246a1e9fc995c51465420ov2ujLBrLoPEe7[] = {
/* columns rows colors chars-per-pixel */
"64 64 202 2 ",
"   c None",
".  c #150E1B",
"X  c #15111F",
"o  c #19141F",
"O  c #160F22",
"+  c #161222",
"@  c #1A1323",
"#  c #1F1927",
"$  c #231A26",
"%  c #261E29",
"&  c #2E232E",
"*  c #34262E",
"=  c #37282D",
"-  c #3D2C2E",
";  c #332630",
":  c #352A32",
">  c #3C2D31",
",  c #3D3236",
"<  c #3C343A",
"1  c #3F393E",
"2  c #402E31",
"3  c #433133",
"4  c #4B3636",
"5  c #40373B",
"6  c #42393C",
"7  c #4B3D3D",
"8  c #4C3639",
"9  c #533C3A",
"0  c #4D403F",
"q  c #5E433C",
"w  c #62473D",
"e  c #724E3F",
"r  c #4D3D41",
"t  c #583F40",
"y  c #504041",
"u  c #5B4242",
"i  c #5D4A45",
"p  c #5A524F",
"a  c #5C5551",
"s  c #6C4E4A",
"d  c #644746",
"f  c #685047",
"g  c #63514A",
"h  c #745242",
"j  c #795644",
"k  c #74534C",
"l  c #7B574D",
"z  c #775B4E",
"x  c #724D58",
"c  c #6E5B51",
"v  c #655751",
"b  c #735253",
"n  c #7C5B53",
"m  c #735C54",
"M  c #6F665F",
"N  c #7B685E",
"B  c #766459",
"V  c #756C63",
"C  c #786D65",
"Z  c #845E4D",
"A  c #885F4B",
"S  c #835E55",
"D  c #8D644C",
"F  c #91654C",
"G  c #94684E",
"H  c #9A6B4F",
"J  c #8A6454",
"K  c #8C6559",
"L  c #816859",
"P  c #936D55",
"I  c #9C6D52",
"U  c #926659",
"Y  c #956B59",
"T  c #9B6D5A",
"R  c #926657",
"E  c #8A725F",
"W  c #9C7155",
"Q  c #9C745A",
"!  c #967056",
"~  c #A37355",
"^  c #A3755A",
"/  c #A67A5A",
"(  c #AC7A5A",
")  c #AB7756",
"_  c #B17D57",
"`  c #B27D5A",
"'  c #8F6E64",
"]  c #906F64",
"[  c #8A7666",
"{  c #947D6A",
"}  c #947A65",
"|  c #BB736F",
" . c #B5815C",
".. c #BB845C",
"X. c #BF895F",
"o. c #8B8374",
"O. c #918576",
"+. c #9A8672",
"@. c #968E7C",
"#. c #9F8C76",
"$. c #AA876A",
"%. c #AA896B",
"&. c #A0876F",
"*. c #BB8964",
"=. c #B78765",
"-. c #BE916C",
";. c #A28F79",
":. c #A4927D",
">. c #AF9273",
",. c #B39374",
"<. c #B4967A",
"1. c #B2987E",
"2. c #BE9C7A",
"3. c #B99575",
"4. c #C1895F",
"5. c #C1865F",
"6. c #C48E64",
"7. c #C88F66",
"8. c #C69166",
"9. c #C99267",
"0. c #C69269",
"q. c #CA9469",
"w. c #CC996E",
"e. c #C69B74",
"r. c #CE9D72",
"t. c #C29B76",
"y. c #D19E73",
"u. c #D19175",
"i. c #C3A17E",
"p. c #CFA177",
"a. c #D4A57A",
"s. c #D5A87C",
"d. c #D3A375",
"f. c #C76F8E",
"g. c #C57B89",
"h. c #EB7DA1",
"j. c #9E9582",
"k. c #AE9E8D",
"l. c #B69B85",
"z. c #B69991",
"x. c #BE9F96",
"c. c #A9A28A",
"v. c #BEA485",
"b. c #BFAC8B",
"n. c #B4A58A",
"m. c #AFA990",
"M. c #BDA397",
"N. c #B3AB92",
"B. c #BBAA95",
"V. c #BFA799",
"C. c #B6A997",
"Z. c #C08E81",
"A. c #DA889B",
"S. c #C49494",
"D. c #E58B9C",
"F. c #E0849B",
"G. c #E79496",
"H. c #EB9B9C",
"J. c #E0999E",
"K. c #C7AD8B",
"L. c #C6A884",
"P. c #DBAF82",
"I. c #D6A886",
"U. c #DDB285",
"Y. c #D6B28A",
"T. c #DAB48B",
"R. c #DBB98E",
"E. c #C5A396",
"W. c #C4A399",
"Q. c #C2AD93",
"!. c #DDAA95",
"~. c #DCB593",
"^. c #C5B193",
"/. c #E0A98C",
"(. c #E1B486",
"). c #E1B689",
"_. c #E4BC8E",
"`. c #E8BF8F",
"'. c #E6B192",
"]. c #E9B395",
"[. c #E6BE90",
"{. c #E8BE91",
"}. c #EAB098",
"|. c #EAA39A",
" X c #D897A3",
".X c #E487A6",
"XX c #E38EA4",
"oX c #ED8CA2",
"OX c #EF89AA",
"+X c #EB86A8",
"@X c #F282AA",
"#X c #F289AD",
"$X c #F085A7",
"%X c #E295A9",
"&X c #E792A5",
"*X c #F091A4",
"=X c #CFAFA4",
"-X c #C2B0A6",
";X c #D6A1A8",
":X c #E7C091",
">X c #E9C091",
",X c #E9C192",
/* pixels */
"                                                                                                                                ",
"                                                                                                                                ",
"                                                                                                                                ",
"                                                                                                                                ",
"                                                                                                                                ",
"                                                                                                                                ",
"                                                                                                                                ",
"                                                                                                                                ",
"                    @ @ @ @ @ @                                                                                                 ",
"                    1 6 6 6 6 1                                                                                                 ",
"                @ 1 V o.o.o.o.V , .                                         @ @ @ o o @                                         ",
"                @ 6 o.N.N.N.N.@.a ,                                         5 6 6 6 6 ,                                         ",
"                @ 6 o.N.N.m.m.c.@.V , .                                 . , C O.o.o.o.V 1 @                                     ",
"                @ 6 o.N.M.x.x.M.B.@.a ,                                 , p @.B.W.W.B.o.6 @                                     ",
"                @ 1 o.M. X%X%X XV.c.@.V < X X + @ @ @ @ @ @ @ @ @ + O , M o.j.z. X XW.o.5 +                                     ",
"                @ 1 o.W.%X#X#XXXM.m.n.+.i 3 8 7 7 7 7 7 7 7 7 7 7 8 3 i O.k.z.S..X&XW.o.1 O                                     ",
"                @ 1 o.W.%X#X$XA.x.n.3.=.W Q %.,.,.,.,.,.,.,.,.,.,.$.W Q ;.z.A..X+XXXW.o.1 @                                     ",
"                @ 1 o.W.%XOXh.A.E.v.e.7.q.d.).,X,X,X,X,X,X,X{.,X,X(.y.w.l.S.XX@X@XXXW.o.6 @                                     ",
"                @ 1 o.W.%XOXh.D.!.T.U.P.U.)._.[.[.[.[.[.[.[.[.[.[._.(.U.Y.!.oX@X@XXXW.o.6 @                                     ",
"                @ 1 o.V.;X%XD.G.'._._._._._._._._._._._._._._._._._.[.[._.].H.oX$XXXW.o.6 @                                     ",
"                @ 1 o.C.-X=X!.'._._._.[._._._._._._._._._._._._._._.[.[._.[.'.|.oXXXE.o.6 @                                     ",
"                @ 5 [ n.B.^.R._._._._._._._._._._._._._._._._._._._._._._._._.].H.J.E.o.1 @                                     ",
"                @ 3 P -.-.e.T.[._._._._._._._._._._._._._._._._._._._._._._._.[.].~.Q.o.1 @                                     ",
"                @ 3 F 5.7.y.U.[._._._._._._._._._._._._._._._._._._._._._._._._._.R.L.[ 5 @                                     ",
"                @ 3 F 7.a.U._._._._._._._._._._._._._._._._._._._._._._._._._.[.[.U.e.P 3 @ @ @ @ @ @ + @ @                     ",
"                + 2 F 7.a.U._._._._._._._._._._._._._._._._._._._._.[.[._._._.[.[.U.8.F 2 $ = 3 3 3 7 0 7 7                     ",
"                + 2 D X.7.r.U._._._.{.{._._._._._._._._._._._._._.[.{.[.[._._.[.[.U.8.F 2 = h F F W %.,.,.} 7 @                 ",
"                > q I ....0.P.[.[.Y.2.2.U._._._._._._._._._._.).U.s.2.2.Y._._.[.[.U.q.F > 2 F ....7.s.).,Xi.B 7                 ",
"            @ > j W ` ....0.P.,X,X2.c c 2.`._._._._._._._._._.U.y./ f c 2.{.[.[.[.U.q.F > > F ....X.6.p.).T.i.} 7 @             ",
"            @ 3 G ..` (  .0.P.,X,X>.6 6 ,.,X[._._.[.[.[.[.[.[.U.q.F - 6 ,.,X[._.U.a.*.D > > A ( ( ~ G ^ e.).,X<.y @             ",
"            @ 3 G ` T T ` 0.P.,X,X>.6 6 ,.,X{._.{.,X,X,X,X,X[.U.q.F - 8 ,.,X,XU.r.*.^ l : : k Y Y l 9 q ^ y.).<.y @             ",
"            @ 3 G ( U U ( 0.U.{.].Z.x b 2.,X{.Y.2.,.,.,.,.2.T.U.q.I d x Z.].{.U.0.` Y s : : s K K s ; - D 0.U.,.y @             ",
"            @ 3 G ( U U ( 0.U.].H.F.f.g.I.,X,X2.c 8 8 8 8 c t.U.9.| | f.A.H.].U.0.( Y s : : s K K s & - D 0.U.,.y @             ",
"            @ 2 j J J U ( 6.a./.H.*X*XH.]._.,X2.g : : : : g 2.(.y.u.G.*X*XH./.a.8.` ^ l : * d S b d 4 q G 0.(.<.y @             ",
"                > 9 b Y ( X.6.r./.}.].].[._.[.L.{ N N N N { L._.U.P.'.}.}./.r.6... . .D > $     > 8 j I ) 8.(.<.y @             ",
"                @ ; u n T ( ) =.p.U._._._.[.[.T.v.1.1.1.<.v.T.[.[.:X:X_.U.a.8...` ^ I j - @     + 2 F X.6.-.3.{ 7 @             ",
"                    ; 8 l U U T =.r.U.:X[.[.[._.T.Y.Y.Y.Y.T._.[.[.:X:XU.r.6.X. .^ Z 9 -         @ 2 F 7.a.3.c 7                 ",
"                    @ ; u k J T ` 6.s.Y.Y.Y.Y.Y.Y.T.R.R.R.R.R.T.U.U.U.a.8.` W D l u * @         @ 3 P y.).,.7 +                 ",
"                        * 9 D ` ..*.3.<.<.<.<.<.1.l.v.b.b.b.b.L.e.8.q.8.4.W w > : ;             @ 7 $.).`.,.7 @                 ",
"                        @ > j F F J L N N N N N N [ +.:.:.:.:.&.! F F F G h = + @ @             @ r ,.,X,X,.y @                 ",
"                            - 2 2 > > > > > > : : r m ' ' ' ] n 9 - - > 2 = $ +                 @ r ,.,X,X,.y @                 ",
"                            > > > - - - - - - - - 9 l U U U R l 9 - - > > > 3 2                 @ r ,._.).%.7 @                 ",
"                        + > j F F D D D D D F F F G ~ ) ) ) ) ~ G D D D D F G j - X             @ r ,.).y.W 3 @                 ",
"                        > q I 4.7.8.0.0.0.0.0.7.X...........6.8.0.0.0.0.8.7.X.I q -             @ r ,.(.q.F 3 @                 ",
"                    @ 2 j I ` 7.a.U.P.P.P.P.U.a.7.........6.a.P.P.P.P.U.U.a.6._ I j > +         O r ,.(.q.F 3 @                 ",
"                    @ 3 G 6.7.r.U._._._._._._.U.r.6.X.*.6.r.U._._._._._._.U.r.6.6.I q -         > d %.t./ j 2 @                 ",
"                    @ 3 F 8.a.U._._._._._._._._.U.a.7.7.a.U._._._._._._._._.U.a.8._ H h > @     D R Q K q >                     ",
"                    @ 3 F q.U.[._._._._._._._._.[.P.8.8.P.[._._._._._._._._.[.U.r.7.X.F 3 +     ( ( Y s = @                     ",
"                    @ 3 F q.U.[._._._._._._._._.[.P.8.8.P.[._._._._._._._._._._.U.a.8.G 3 + + 4 H ( T s ; @                     ",
"                    @ 3 F 7.a.U._._._._._._._._._.P.8.8.P.[.[._._._._.).U.U.)._.[.U.q.G 3 # & 4 j A l u = @                     ",
"                    @ 3 F 6.8.y.U.[._._._._._._._.P.8.8.P.[._._._._.[.U.r.r.U.[.[.U.q.G 3 & t d 4 - : =                         ",
"                    @ > j I ` 7.a.U._._._._.U.U._.U.r.r.U.[.R.R._._.U.s.w.r.U.[.[.U.q.G 3 : k k = @ @ @                         ",
"                        > q I X.7.r.U.[.[.U.y.y.U._.U.U._.R.K.K.R.U.y.w.a.U.)._.[.U.q.G 3 : k k = @                             ",
"                        + - h I ` q.U.,X,XI./ / s.,X,X_.(.i.+.#.Y.(.q.q.U.,X:X_.(.r./ h = & u u = @                             ",
"                            - q I q.(.,X,X2.f f 2.,X,X).y./ i v 2.(.w.q.U.,X,X).d./ w = $ $ * =                                 ",
"                            + > j Q %.<.<.' , , E <.<.%.W e * , [ %.Q W %.,.,.%.W j - + @ @ @ @                                 ",
"                                > 3 8 7 7 , % % , 7 7 8 3 = $ % , 7 3 3 8 7 7 8 3 -                                             ",
"                                @ @ + + + @ @ @ @ + + + @ @ @ @ @ + + + + + + + + +                                             ",
"                                                                                                                                ",
"                                                                                                                                ",
"                                                                                                                                ",
"                                                                                                                                ",
"                                                                                                                                ",
"                                                                                                                                "
};
