/* XPM */
static char *c0594fdf13e04898da1ff8394014e373T5EmIxoTSAdlBim0[] = {
/* columns rows colors chars-per-pixel */
"64 64 133 2 ",
"   c None",
".  c #565576",
"X  c #565779",
"o  c #56587B",
"O  c #5F5D7B",
"+  c #565B80",
"@  c #565E89",
"#  c #56618D",
"$  c #58678C",
"%  c #56688D",
"&  c #586A8E",
"*  c #566393",
"=  c #596B90",
"-  c #56669A",
";  c #57699D",
":  c #586E9C",
">  c #597095",
",  c #59729E",
"<  c #726E86",
"1  c #737087",
"2  c #737188",
"3  c #576CA4",
"4  c #576EAA",
"5  c #5975A0",
"6  c #5A7BA1",
"7  c #5770AC",
"8  c #5774B6",
"9  c #5776BA",
"0  c #5876B8",
"q  c #577ABB",
"w  c #587BBC",
"e  c #577BC7",
"r  c #587CC5",
"t  c #577DCB",
"y  c #587FCC",
"u  c #758199",
"i  c #5981BF",
"p  c #5D8EBC",
"a  c #5F96BE",
"s  c #5F98BF",
"d  c #6690B3",
"f  c #5A83C0",
"g  c #5881CD",
"h  c #5A8ACE",
"j  c #5D92C2",
"k  c #5F9AC3",
"l  c #5C93CE",
"z  c #5F9FCE",
"x  c #5985D1",
"c  c #5A8BD0",
"v  c #5A8AD2",
"b  c #5A8CD0",
"n  c #5A8CD1",
"m  c #5B8CD1",
"M  c #5C91D0",
"N  c #5C93D0",
"B  c #5C93D1",
"V  c #5C93D3",
"C  c #5D94D0",
"Z  c #5C94D1",
"A  c #5D94D2",
"S  c #5D95D2",
"D  c #5C94D3",
"F  c #5C95D3",
"G  c #5C94D1",
"H  c #5E98D0",
"J  c #5E98D1",
"K  c #5E99D1",
"L  c #5E9AD1",
"P  c #5E9BD1",
"I  c #5E9AD2",
"U  c #5E9AD3",
"Y  c #5E9CD1",
"T  c #5F9DD3",
"R  c #5F9ED4",
"E  c #5E99D2",
"W  c #609AC2",
"Q  c #609BC3",
"!  c #609CC4",
"~  c #609DC4",
"^  c #609FCD",
"/  c #609FCE",
"(  c #5FA0D2",
")  c #60A0CE",
"_  c #60A1CE",
"`  c #61A5CD",
"'  c #61A7CF",
"]  c #62A7CF",
"[  c #60A0D2",
"{  c #60A1D2",
"}  c #60A1D3",
"|  c #60A2D2",
" . c #60A3D2",
".. c #60A2D3",
"X. c #60A3D3",
"o. c #60A4D3",
"O. c #61A5D3",
"+. c #61A6D3",
"@. c #60A1D4",
"#. c #60A2D4",
"$. c #60A3D5",
"%. c #60A4D4",
"&. c #60A5D4",
"*. c #60A5D5",
"=. c #61A6D4",
"-. c #61A6D5",
";. c #60A5D6",
":. c #61A6D6",
">. c #61A7D7",
",. c #60A4D4",
"<. c #61A8D0",
"1. c #61A9D4",
"2. c #62A9D4",
"3. c #62AAD4",
"4. c #62ABD4",
"5. c #62AAD5",
"6. c #62ACD4",
"7. c #62ADD4",
"8. c #63ADD4",
"9. c #62ACD5",
"0. c #62ADD5",
"q. c #63AED5",
"w. c #62ADD6",
"e. c #62ACD7",
"r. c #62ADD7",
"t. c #62AED6",
"y. c #63AED6",
"u. c #63AED7",
"i. c #63AFD7",
"p. c #62ACD4",
"a. c #AEA7A8",
"s. c #AEA9A9",
"d. c #AFADAF",
/* pixels */
"                                                                                                                                ",
"                                                                                                                                ",
"                                                        o o o o o o o o o o o o o o                                             ",
"                                                        o o o o o o o X X X X X X X                                             ",
"                                            o o o o o o o o o o o o X X X X X X X X X X X .                                     ",
"                                            X X X X X X X X X X X o @ # # # # # = = = = = >                                     ",
"                                    o o o o X X X X X X X X X X . @ 4 9 9 9 9 w p s s s s Q ` 7.7.7.7.#.h y y y                 ",
"                                    X X X o @ # # # = = = = = = & 5 f n n c c B &.7.7.7.7.7.7.` ~ s s j h h h h                 ",
"                            o o o o X X X @ 4 9 9 w p s s s s s s k z #.#.} } &.5.7.7.7.7.7.7.~ 6 & % 5 j #.} } 5.} h y         ",
"                            X X X o @ # # ; f n c B &.7.7.7.7.7.7.7.7.7.7.7.7.7.5.5.5.5.5.5.&.p # O < u d k 4.7.7.( h y         ",
"                        o o X X X @ 4 9 9 i l #.#.&.5.7.7.7.7.7.7.7.7.7.7.7.7.5.5.5.5.5.7.&.B q # 1 a.d.u 6 k 7.7.( h y y g     ",
"                        X o @ # & 5 f n c B o.7.7.7.5.5.5.5.5.5.5.5.5.5.5.5.5.5.5.5.5.7.7.} c 8 @ 2 s.a.< # s 7.7.} l h g g     ",
"                    o X X @ 4 w p k / #.#.o.5.7.7.5.5.5.5.5.5.5.5.5.5.5.5.5.5.5.5.5.5.7.7.} c 8 @ O 2 1 O & s 7.7.5.o.P h y     ",
"                    X o @ ; f D &.7.7.7.7.7.5.5.5.5.5.5.5.5.5.5.5.5.5.5.5.5.5.5.5.5.5.5.7.o.B i ; @ @ # # 6 ~ 7.7.7.7.} h y     ",
"                        8 i l &.5.7.7.7.7.5.5.5.5.5.5.5.5.5.5.5.4.5.5.5.5.5.5.5.5.5.5.5.5.5.o.l i 8 8 q p ~ ` 7.7.7.7.#.c g     ",
"                        c B o.7.7.5.5.5.5.5.5.5.5.5.5.5.5.5.5.5.4.4.4.5.5.5.5.5.5.5.5.5.5.7.7.o.B c c D &.7.&.z k s s p w 9     ",
"                    y h P &.5.7.5.5.5.5.6.4.5.5.5.5.4.5.5.5.5.5.5.5.5.5.5.5.5.5.5.5.5.5.5.5.7.5.o.} } &.7.&.D f , & & & # #     ",
"                    h l } 7.7.5.5.5.5.5.6.6.5.5.5.5.4.4.5.5.5.5.5.5.5.5.6.6.5.5.5.5.4.5.5.5.5.5.7.5.o./ k p w 4 - @ @ @ o X     ",
"                t h P } 5.7.5.5.5.5.5.5.5.5.5.5.5.5.5.5.5.5.5.5.5.5.5.4.4.5.5.5.5.5.4.5.5.5.5.7.7.&.D i , $ # - 4 9 9 4 @ X     ",
"                h l } 7.7.5.5.5.5.5.5.5.5.5.5.5.5.5.5.5.6.5.5.5.5.5.5.5.4.4.5.5.5.5.5.5.5.5.5.7.7.} h 9 - # $ , f c x w * X     ",
"            t h P } 5.7.4.4.4.5.5.5.5.5.5.5.5.5.5.5.5.5.4.5.5.5.5.5.5.5.5.5.5.5.5.5.5.5.5.5.5.7.7.} h e 9 w p Q ) P h r         ",
"            h l } 7.7.5.4.5.5.5.5.5.5.5.5.5.5.5.5.5.5.4.4.5.5.5.5.5.5.5.5.5.5.5.5.5.5.5.5.5.5.7.7.} h g h D &.7.o.P h y         ",
"        y h P } 5.7.5.5.5.5.5.5.5.5.5.5.5.4.5.5.5.5.6.4.5.5.5.5.5.5.5.5.5.5.5.5.5.5.5.4.5.5.5.7.7.} h h P &.7.&.B h             ",
"        y h } 7.7.5.5.5.5.5.5.5.5.5.5.5.4.5.5.5.5.5.5.5.5.5.5.5.5.5.5.7.7.5.5.5.5.5.6.6.7.7.7.5.o.P h h P } } P h t             ",
"        y h } 7.7.5.5.5.5.5.5.5.5.5.5.5.5.5.5.5.5.5.5.5.5.5.5.5.4.5.4.5.7.7.5.5.5.5.7.7.7.7.7.o.l h g g h h h h                 ",
"        y h } 7.7.5.5.5.5.5.5.5.5.5.5.5.5.5.5.5.5.5.5.5.5.5.5.5.7.5.} T T } 5.7.7.5.} } } } } P h y y g y y y y                 ",
"    g y y h } 7.7.5.5.5.5.5.5.5.5.5.5.5.5.5.5.5.5.4.5.5.5.5.5.7.7.o.l h h l o.7.7.o.l h h h h h g y y y g y                     ",
"    g g y h P } 5.5.7.5.5.5.5.5.4.5.5.5.5.5.5.5.6.4.5.7.7.7.6.5.&.P h g h h P } } P h y y y y y g g y y g g                     ",
"    y y g g h l } 7.7.7.5.5.5.5.4.5.5.5.5.5.5.5.5.5.7.7.7.7.7.o.D h g h P T l h h h g y y y y g g g                             ",
"    y y y g h l } 5.} } 5.7.7.7.6.7.7.7.7.7.7.7.7.5.o.} } #.#.l w w h D o.} h y y y g g g g g g g g                             ",
"    g y y h P o.5.} l l } 7.7.7.7.7.7.7.7.7.7.7.7.o.B c c n n i ; : j &.7.} h y y g g g                                         ",
"    g g h l o.7.7.} l h P } } } } } } } } } } } } l w 8 8 9 9 4 * , Q 7.&.P h y y g g g                                         ",
"    g h P o.5.7.7.5.} P h h h h h h h h h h h n c i ; # # # # - 4 i ) o.B h                                                     ",
"    9 i / 7.7.5.5.7.7.} h y y y y y y g y r 9 9 r 9 # . . . . # w B T P h t                                                     ",
"    @ , k 7.7.5.5.7.7.} h y y y y g g g g q ; *             . & a R B h                                                         ",
"    . & p &.5.7.7.5.o.P h y g g g r w w r 8 # .             # , j T h t                                                         ",
"    . # w D &.7.7.} l h g g g g g w ; *                     9 w h h                                                             ",
"    X * 9 h P } } D h y y g g g g q * .                     g g y y                                                             ",
"        r g h h h h g y g g g g g r                                                                                             ",
"        g r 9 9 r g g g g g g g g r                                                                                             ",
"            * ; q g g g g g g g g w * X                                                                                         ",
"            . # 4 w t g g g g g g 8 # X                                                                                         ",
"                # ; w g g g g g g 8 # . X o o o                                                                                 ",
"                . # 7 0 0 8 0 w t w ; @ o X o o                                                                                 ",
"                    # # # # # ; w g w 4 @ X X o o o o o o o o o o o o o o o o o                                                 ",
"                    X X X X . @ 4 w g r 3 @ o X o o o o o o o o o o o o o o o o                                                 ",
"                            X o @ ; r g r 4 @ X X o o o o o o o o o o o o o                                                     ",
"                            o X X @ 4 q w 8 ; @ o o o o o o o o o o o o o o                                                     ",
"                                X o @ # # ; 8 7 # X o o o o o o o o o o                                                         ",
"                                o o X X X @ 7 7 # X o o o o o o o o o o                                                         ",
"                                    X X X o # # + o o o o o o o                                                                 ",
"                                    o o o o X X o o o o o o o o                                                                 ",
"                                    o o o o o o o o o o                                                                         ",
"                                    o o o o o o o o o o                                                                         ",
"                                    o o o o o o o o o o                                                                         ",
"                                    o o o o o o o o o o                                                                         ",
"                                        o o o o o o                                                                             ",
"                                        o o o o o o                                                                             ",
"                                        o o o o o o                                                                             ",
"                                        o o o o o o                                                                             ",
"                                        o o o o                                                                                 ",
"                                        o o o o                                                                                 ",
"                                                                                                                                ",
"                                                                                                                                "
};
