/* XPM */
static char *ff7d5fd95ff447b9906ba7de69e42adaGPLz0gQQy4jK9HRW[] = {
/* columns rows colors chars-per-pixel */
"64 64 229 2 ",
"   c None",
".  c #010101",
"X  c #090808",
"o  c #150A06",
"O  c #18120E",
"+  c #161413",
"@  c #191614",
"#  c #1C1916",
"$  c #14131A",
"%  c #1D1A19",
"&  c #17181C",
"*  c #0C0C11",
"=  c #24140B",
"-  c #2B180E",
";  c #231A16",
":  c #2C1A11",
">  c #221D1B",
",  c #251710",
"<  c #311D13",
"1  c #26211E",
"2  c #28211F",
"3  c #352115",
"4  c #3A2519",
"5  c #151623",
"6  c #181722",
"7  c #1A1924",
"8  c #1C1C2B",
"9  c #161B27",
"0  c #171F32",
"q  c #231F28",
"w  c #1F202E",
"e  c #192437",
"r  c #2C2422",
"t  c #24232D",
"y  c #2B252A",
"u  c #282627",
"i  c #312725",
"p  c #322926",
"a  c #3A2B24",
"s  c #352B29",
"d  c #3A2E2C",
"f  c #30272B",
"g  c #2B332E",
"h  c #3D312E",
"j  c #38352B",
"k  c #232533",
"l  c #262A36",
"z  c #272B38",
"x  c #292D3A",
"c  c #2A2B34",
"v  c #392D32",
"b  c #2C323D",
"n  c #2D3937",
"m  c #3D3232",
"M  c #36383A",
"N  c #452C1B",
"B  c #4C3224",
"V  c #47342C",
"C  c #5C3D2A",
"Z  c #553927",
"A  c #433433",
"S  c #483736",
"D  c #493837",
"F  c #4F3C3A",
"G  c #4B3A38",
"H  c #473835",
"J  c #503E3B",
"K  c #513E3C",
"L  c #523E3B",
"P  c #543D33",
"I  c #442D22",
"U  c #39513E",
"Y  c #364732",
"T  c #5B402F",
"R  c #54403E",
"E  c #54403E",
"W  c #5C4334",
"Q  c #455436",
"!  c #4A4F34",
"~  c #63422D",
"^  c #6A4A32",
"/  c #654835",
"(  c #714E34",
")  c #755237",
"_  c #7A573A",
"`  c #6E5238",
"'  c #59773D",
"]  c #4F6438",
"[  c #152747",
"{  c #152D55",
"}  c #152E58",
"|  c #15305E",
" . c #1C3359",
".. c #2F3440",
"X. c #2C3A4C",
"o. c #27344D",
"O. c #313641",
"+. c #343B44",
"@. c #373E48",
"#. c #383F49",
"$. c #3D3F42",
"%. c #2A364A",
"&. c #1E3E6F",
"*. c #173464",
"=. c #1E3E71",
"-. c #3B4145",
";. c #3B434B",
":. c #3C474A",
">. c #395D41",
",. c #395241",
"<. c #3C4752",
"1. c #3D505E",
"2. c #3B6743",
"3. c #2A4B78",
"4. c #2A4062",
"5. c #1E4073",
"6. c #41494D",
"7. c #574240",
"8. c #564240",
"9. c #5A4543",
"0. c #5E4745",
"q. c #5B4543",
"w. c #5F4846",
"e. c #524C4C",
"r. c #445547",
"t. c #424C53",
"y. c #464E59",
"u. c #465155",
"i. c #4A555B",
"p. c #4D595D",
"a. c #485356",
"s. c #614947",
"d. c #654D4A",
"f. c #644B49",
"g. c #694F4C",
"h. c #6B514E",
"j. c #6F5451",
"k. c #715553",
"l. c #735654",
"z. c #7C5D5A",
"x. c #7C5D5A",
"c. c #785A57",
"v. c #466845",
"b. c #467D47",
"n. c #4A7F47",
"m. c #457345",
"M. c #587549",
"N. c #627F41",
"B. c #515E62",
"V. c #4E5961",
"C. c #556366",
"Z. c #5A6A6B",
"A. c #586469",
"S. c #5E736D",
"D. c #5E6D71",
"F. c #5F7170",
"G. c #627473",
"H. c #697D7B",
"J. c #677879",
"K. c #6A757B",
"L. c #835C3B",
"P. c #88633E",
"I. c #896541",
"U. c #8F694B",
"Y. c #A47849",
"T. c #79A43E",
"R. c #4A8348",
"E. c #4B8247",
"W. c #518648",
"Q. c #548A49",
"!. c #598747",
"~. c #5D9045",
"^. c #658846",
"/. c #6A9649",
"(. c #6B9C4B",
"). c #669647",
"_. c #6C9454",
"`. c #74A44C",
"'. c #79A94C",
"]. c #73A053",
"[. c #67866A",
"{. c #6C817D",
"}. c #698871",
"|. c #759475",
" X c #7DA172",
".X c #8CB33B",
"XX c #8BB23B",
"oX c #80AB45",
"OX c #2B568B",
"+X c #2E5D96",
"@X c #2E5F9A",
"#X c #274F86",
"$X c #316898",
"%X c #377AAD",
"&X c #367AB3",
"*X c #2F63A0",
"=X c #6E7D83",
"-X c #717D84",
";X c #457D9E",
":X c #3885BC",
">X c #3A83B6",
",X c #748B85",
"<X c #778D89",
"1X c #788A8E",
"2X c #738588",
"3X c #7B928D",
"4X c #7F998D",
"5X c #7E9393",
"6X c #798C8E",
"7X c #4B8EB4",
"8X c #3A8BC3",
"9X c #3F92C7",
"0X c #4B9CCC",
"qX c #5099C3",
"wX c #55AAD9",
"eX c #4CA1D2",
"rX c #85999A",
"tX c #808E8D",
"yX c #8DA99A",
"uX c #8A9EA1",
"iX c #8DA3A2",
"pX c #95ACAB",
"aX c #91A7A7",
"sX c #9DB4B4",
"dX c #98B2A8",
"fX c #A4B9BC",
"gX c #ABBEC2",
"hX c #B2C4CA",
"jX c #BACBD2",
/* pixels */
"    z.z.z.z.z.z.z.z.z.z.z.z.z.z.z.z.z.z.z.z.z.z.z.z.z.z.z.z.z.z.z.z.z.z.z.z.z.z.z.z.z.z.z.z.z.z.z.z.z.z.z.z.z.z.z.z.z.z.z.z.    ",
"    F K 9.w.w.w.w.9.K K 9.w.w.0.0.w.w.9.K K 9.w.w.0.0.w.w.9.K K 9.w.w.0.0.w.w.9.K K 9.w.w.0.0.w.w.9.K K 9.w.w.0.0.w.w.9.K F     ",
"    > 2 i s s s s i 2 2 i s s s s s s i 2 2 i s s s s s s i 2 2 i s s s s s s i 2 2 i s s s s s s i 2 2 i s s s s s s i 2 >     ",
"    @ @ @ @ @ @ @ + + @ @ @ @ @ @ @ @ + + @ @ @ @ @ @ @ @ @ @ + + @ @ @ @ @ @ + + @ @ @ @ @ @ @ @ @ @ @ @ @ @ @ @ @ @ @ @ @     ",
"+ # 2 r r r r 2 # + + # 2 r r r r 2 # + + # 2 r r r r r r 2 # + + # 2 r r 2 # + + # 2 r r r r r r 2 # # 2 r r r r r r r r 2 # + ",
"+ # r s h h s r r > @ r L 9.G A A d r > @ > s A A A A A A d > @ > r d A A d r > @ > s A A A A h s r # > s A A A A A A h s r # + ",
"+ # 2 s A S h d s r @ i d.l.7.G G S d r # > s A A A A h d r % % p h S F 9.R A i % > d K 9.7.F S h i % > S K S A A A A d r > @ + ",
"+ % r h S G G A s 2 @ r s.j.7.S G A s r # % i d s s s r > @ + > d G G 7.l.l.7.d > > d 7.l.l.q.F G d > 2 F 7.A p s s s r > @ + + ",
"+ 2 G 9.F G G A s 2 @ r R s.K G G A s r @ 1 G 7.G S S S A s > > d G G 7.l.l.7.d > > d 7.l.z.c.h.R d > > m G S S S S S A s 1 # + ",
"+ r K s.K G G A s 2 @ 2 L 0.K G G A s r # > d S G K f.d.E A r r A G G K d.d.K d > > d 7.l.x.U.l.7.d > > d S h d d d d d s r # + ",
"+ r L w.K G G A s 2 @ 2 L 0.K G G A s r # # 2 s A R h.h.R A s d A G G K 0.w.K d > > d 7.l.z.l.s.K d > > d A s p s s p p p r # + ",
"+ 2 F q.L G G A d 2 @ r R s.K G G A s r # # r d S R s.s.K A p p d A S G 7.7.G s > > d R h.g.R G G d > > d S h d S A s p p r # + ",
"+ > m G G G G A s 2 @ r s.j.7.S G A s r # # r h R d.l.j.7.d > @ # > r s d p > @ + > h S h h S G G d > > d F 9.7.F A s p p r # + ",
"+ @ > r s d d p 1 # + r 7.d.K S G A s r # # 2 h 7.h.c.l.7.m r r p d h G 9.7.A r # > h A s h 0.d.R d > > d K w.w.F S A h s r # + ",
"+ @ > r s d d p 1 # + r 7.d.9.K G A s r # % i A 9.h.c.l.0.S p i A G G R h.h.7.d > > s h s h w.s.G s % > d K 0.0.L G G A s r # + ",
"+ > m G G G G A s 2 @ r d.c.h.0.F A s r # > h K 0.g.l.l.h.L 2 > d G G E s.s.K d > # r p p s A A s r # > d K 0.0.L G G A s r # + ",
"+ 2 F q.L G G A d 2 @ r d.c.h.0.F A s 2 @ 2 F s.f.0.R R s.L 2 > d F 9.d.l.j.7.d > # r p p p s s p r # > d K 0.0.L G G A s r # + ",
"+ r L w.K G G A d 2 @ r d.c.h.q.F A s r # > S R E F G S A d > > d K 0.h.c.l.7.d > > s S L R R F S s > > d K w.w.K S h s p r # + ",
"+ r L w.K S A h s 2 @ r d.z.l.d.9.G d r # > s S F K R G d 2 @ > d K 0.h.c.l.7.d > % r d A G G S A s > > d G F F G S h s p r # + ",
"+ r L w.K A s p p r @ r s.z.z.l.d.L d 1 @ @ 1 d R d.d.7.h r % > d K 0.h.c.l.7.d > + + + + + + % r r # > h S d d A G G A s r # + ",
"+ r L w.K A s p p r @ r K g.g.q.A i > @ + + @ #             r p A F 0.h.l.l.7.d > +                 + > d G S S S G G A d r # + ",
"+ r L f.0.7.R F S s > > s S F G A d r > @ O X . . . . . . X + 1 s A F 7.0.R A s r 1                 1 r s h S F 7.0.0.7.G d r 1 ",
"+ > A R 9.0.0.7.G s % @ > s A L W G s q % $ * X X X X X * $ & 7 u u f v v f u r y f c                 p i s A G G G H A d s s p ",
"+ # 1 p h A A m s r > ;         ) / f 9 7 7 7 6 @ + + % l b b z w 9 9 9 9 9 9 w z b b x x z                     + + + + + +     ",
"    @ @ # % % %     ^ ^     9 f / / M t % @ @ @ @ + + u +.t.t.;.b k 8 7 7 8 k b ;.t.t.;.b z z z z z             + + + + + +     ",
"    + + + + + +     _ ^ d 9 w m _ _ j % @ @ > 2 2 > @ u -.u.y.t.:.O.k 9 w x +.:.y.t.#.b x x +.;.;.@.b           + + + + + +     ",
"    + @ % % @ +     ^ C s q t F I.P.4 + @ > r p p r # u -.u.y.t.:.O.k 9 k O.<.y.:.+.x z b @.t.u.u.t.@.O.b       + @ % % @ +     ",
"    @ > r r # +     Z B a r r P I.P.a # 2 p s s p r # u +.t.t.;.b k 8 8 k b ;.;.b z x O.:.t.y.y.y.y.y.:.b z     + # r r > @     ",
"    r r p r # ; B B 2 > r i 3 Z P.P.B < 3 a V A s r # % l b b z w 9 9 9 9 t z z 8 k @.t.y.y.y.y.y.y.y.:.b z     + # r p r r     ",
"_ W d r p r @ > B B ; ; a I : : N N : = = : B V a r # @ 6 7 7 6 6 $ $ $ $ 6 6 6 $ 7 k O.<.u.u.u.u.t.@.b k k k t & # r r > >     ",
") ^ P V s r > 2 a a ; 2 Z Z - o o o o o o - Z T V p % + $ $ $ $ $ $ $ $ $ $ $ $ $ $ $ 8 b @.;.;.;.O.z 8 9 8 k k % # r r > %     ",
") ) _ ^ V p p y q 6 @ 2 Z C 3 = = = = = = 3 C / F d > @ $ 5 5 5 5 5 5 5 5 5 $ $ $ $ $ $ 6 8 k x x x k 8 8 8 k t & # r p p p     ",
") _ U.I.W A s y 8 7 $ + = 3 C ^ ^ ^ ^ ^ ^ Z 3 : i r # 6 [ { { { { { { { { [ 9 $ $ $ $ $ 6 8 k b ;.t.6.;.b k 8 7 $ # r p p p     ",
"  I.Y.U./ S A d q 6 $ + , : 3 4 4 4 4 4 4 3 : : d s > 9 [ *.| | | | | | | } [ [ [ e 5 $ 8 x +.:.t.u.u.t.:.O.k 6 @ # r p p i     ",
"    ` ` ` / L v t 6 $ # 3 3 < : : : : : : : 3 4 A h > 9  .=.=.&.&.&.&.&.&.=.5.&.*.{ e 0 k ..<.u.u.y.y.t.:.O.k 6 @ # r s d d     ",
"    @ a ) I./ S t 6 $ @ : 4 B C C C C C C B 4 4 V d > e 3.@X@X+X+X+X+X+X+X+X+X#X&.*.*. .o.b ;.t.t.t.t.;.b k 8 6 @ # r d A G     ",
"    r p a T I._ v 6 @ O O - I C ^ ( ( ^ C I - , d d > e $X8X:X:X:X:X:X:X:X&X*XOXOXOXOX3.o.c x b b b b x x k 8 6 @ # r d A G     ",
"Z C T T T / ^ T f 6 @ + O O : < 3 4 4 3 < : ; a q.q.a +.;XeXeX0X0X0X9X8X8X:X&X&X&X&X*X3.o.x O.@.@.@.@.+.x k 8 6 @ # r s s d     ",
"~ ^ _ P.P.L.^ V y 6 @ + + + O O O O O O O ; i H s.q.V <.7XwXwXwXeX0X9X8X8X8X>X%X$XOX3.4.X.;.p.C.C.C.C.p.;.x w 6 @ # r s s d     ",
"( _ I.U.Y.U._ T y 6 $ + @ @ @ @ + + @ > r d G F G A s ;.;XqXqX7X>X%X%X>X>X%X+X3.X.O.O.@.:.B.H.,X,X,X,XH.B.;.k 6 @ # r d A G     ",
"C C ~ ^ ) ) ~ V y 6 $ # 2 r r 2 # # 1 p m K h.h.R A s s ..X.X.X.X.X.X.;.1.1.X.;.Z.H.H.F.p.p.J.,X,X,X<XH.B.;.k 6 @ # r d A G     ",
"Z C ~ ) P.P.) P y 6 @ # r s h s > # r s A 7.l.l.7.A s s M 6.p.C.C.C.C.p.-.-.p.F.{.<X<X,XJ.Z.i.A.rXrXJ.p.;.x w 6 @ # r d A G     ",
"Z C ^ ) L.L.) P y 7 % 1 p h S d > @ r s A R l.l.d.F d d -.B.H.<X<X<X<XG.@.-.G.<X,X,X,X<X<XG.@.#.=X2Xi.O.x k 8 6 @ # r d A G     ",
"    B B Z Z Z I q 8 r d G K K A 1 % r d S q.l.z.x.g.A v 6.C.H.,X,X<X3XJ.;.-.F.<X3X3X3X<X2XF.<.+.:.:.O.b x z 8 6 @ # r d A G     ",
"    ; ; ; ; ; % 7 8 r A d.l.l.d.h r r A d.c.z.z.z.g.A M Z.2X,X,X,X5XaX5Xt.@.F.5XaXsXsXrXZ.B.G.Z.;.b ;.t.t.@.k 6 @ # r s A G     ",
"    > > @ + + $ 6 8 y d G F F G A d p A h.U.x.x.x.h.G e.tXpXpXpXpXiX2XA.+.O.i.Z.J.H.H.A.:.;.p.B.t.@.+.#.t.;.k 6 @ # r d S G     ",
"  ' j r > # @ $ 6 8 u f u u u f m m s h 0.h.h.h.h.0.S e.H.rXrXrXrX=Xa...x x O.+.O.O.+.O.x O.i.B.i.:.b x +.O.k 6 @ # r s h A     ",
"'.^.! j p r # @ 6 8 k x ..O.b x x c f s A S S S S A s v -.t.t.t.t.;.b z x ..+.#.#.@.+...b :.G.H.p.;.b z x z 8 6 @ # r p p s     ",
"    /.' ! r # $ 6 8 k ;.Z.G.p.;.b c f p p s s s s p p f c b b b b x z b ;.C.5XaXaXrX,XZ.i.p.H.G.:.x z b ;.@.k 6 @ # r i i ! ^.`.",
"    '.^.! j ] ] g 9 k +.p.Z.G.Z.y.+.c t t t t c M -.$.6.B.Z.Z.Z.Z.B.t.t.Z.2XrXiXiX5XJ.B.u.<.<.;.b O.p.C.i.;.k 6 + @ > j ] N./.  ",
"    ).!.] ] ' ] g 9 k b ;.B.{.{.C.a.B.A.D.A.;.O.:.t.y.p.Z.G.G.G.G.Z.i.i.Z.G.G.F.F.C.u.p.K.-XD.y...;.J.{.C.;.k t Y Y j ! ^.'.    ",
"    b.W.).^.! s q 8 k b ;.p.G.G.i.C.rXfXjXfX-XB.B.p.y.y.p.B.C.A.A.A.A.C.B.p.u.u.p.B.B.-XfXjXgX5Xt.@.Z.J.p.+.k g ' N.] ] ^.`.    ",
"    b.n.E.Q.).' g 9 k x x +.t.t.O.:.J.3X5XiXgXhXfX1Xt.t.1XfXhXjXjXjXjXhXsX5XC.C.5XfXhXgXiX5X3XJ.;.b t.y.+.z 8 7 1 Y ' /.Q.E.    ",
"      b.b.W.(./.v.U b k k z b b x O.i.Z.{.3XaXfXfXrXt.t.rXfXsXpXpXpXpXsXfXuXi.i.rXfXsXaX3X{.Z.i.O.x b b x k k g Q ' !.Q.R.b.    ",
"        ).).(.).R.m.v.r.a.:.b z z x O.t.A.G.G.{.rX1X<.<.1XiX3X,X,X,X,X<X5XK.;.<.1XrX{.G.G.Z.t.O.x x b ..z z n v./.`.Q.b.b.b.    ",
"        .X.X    W.!.)._.}.Z.@.x b +.@.;.:.t.<.i.G.Z.@.@.Z.H.H.H.H.H.H.F.i.#.x @.Z.G.i.t.t.:.@.O.b O.;.:.+.U m.Q.(.'.    E.b.    ",
"        '.'.    XXT.~.m.:.b z @.Z.,XuX1Xy.x x b O...x x ..O.O.O.O.O.O.O.b x x x ..O.b x x ;.Z.G.i.;...U N.).W.b.    .X.X        ",
"        `.(.Q.).XX.X).2.>.U b -.^. XrX5XJ.i.....i.D.=X1X1X2X1X=XD.p.:.y.J.1X1X2XG.i.O.x +.t.B.V.;.+.,.v.W.).(.T.    '.'.        ",
"          ).E.W.T.        m.U v.^.].[.[.}.S.v.v.H.4XyXdXdXaXuXrX|.[.a.V.5XpXuX5XH.C.+.x +.6.v.v.,.U m.R.b.).XX.X).Q.(.`.        ",
"            b.b.            b.W.).).W.b.b.W.).].|.|._._.}.D.i.r.^.N.U :.Z.G.i.t.a.r.+.b b U ^.(.Q.b.        .XT.!.W.(.`.        ",
"                    `.`.        E.E.E.b.b.n.E.Q.(.^.r.n O.O.b b n Q !.N.r...x -.!.).n.m.m.n.(.(.Q.b.            E.n.            ",
"                    `.`.                  b.b.W.(./.m.>.>.>.>.>.>.m././.m.>.>.v.W.Q.Q.    Q.Q.Q.E.                              ",
"                                              W.(.(.Q.R.R.R.R.R.R.Q.(.(.Q.R.R.R.b.                      `.`.                    ",
"                                                                                                        `.`.                    "
};
