/* XPM */
static char *_d2d14688c9f41d6ffcb1e2ea27038674NJ0qBicQVrcJzzv[] = {
/* columns rows colors chars-per-pixel */
"64 64 217 2 ",
"   c None",
".  c #28182E",
"X  c #291930",
"o  c #291B3C",
"O  c #3D1D35",
"+  c #342235",
"@  c #3C2436",
"#  c #3C2C37",
"$  c #392738",
"%  c #3A2A39",
"&  c #342C3B",
"*  c #312938",
"=  c #421F37",
"-  c #4C2A3D",
";  c #452639",
":  c #552A3D",
">  c #43333C",
",  c #4B343C",
"<  c #4D383F",
"1  c #52373F",
"2  c #632D3D",
"3  c #75303E",
"4  c #3B2648",
"5  c #3B2846",
"6  c #34294F",
"7  c #392B6D",
"8  c #362973",
"9  c #392B71",
"0  c #362C7A",
"q  c #3A336F",
"w  c #291F45",
"e  c #522F41",
"r  c #5D2B42",
"t  c #413641",
"y  c #4C3B43",
"u  c #483846",
"i  c #553243",
"p  c #5A3646",
"a  c #543C43",
"s  c #5C3E46",
"d  c #533E4B",
"f  c #583448",
"g  c #51304B",
"h  c #632C42",
"j  c #692D41",
"k  c #613D49",
"l  c #773343",
"z  c #732E40",
"x  c #483A68",
"c  c #433974",
"v  c #5C4246",
"b  c #52434E",
"n  c #5E444B",
"m  c #57484B",
"M  c #554346",
"N  c #574756",
"B  c #53464C",
"V  c #63434A",
"C  c #6B464D",
"Z  c #65494B",
"A  c #6C4B4E",
"S  c #70474F",
"D  c #64455E",
"F  c #6C4A54",
"G  c #734C51",
"H  c #734A51",
"J  c #6B5353",
"K  c #6A5B5C",
"L  c #645659",
"P  c #745352",
"I  c #7B5355",
"U  c #795A58",
"Y  c #6D524D",
"T  c #5B4E64",
"R  c #554666",
"E  c #4A487B",
"W  c #524D72",
"Q  c #59506B",
"!  c #644B6B",
"~  c #644966",
"^  c #6C5C63",
"/  c #625365",
"(  c #6D5A71",
")  c #6D6167",
"_  c #746462",
"`  c #73636A",
"'  c #796A69",
"]  c #776972",
"[  c #7D7172",
"{  c #7E706C",
"}  c #83313F",
"|  c #863343",
" . c #983642",
".. c #A33944",
"X. c #AA3A43",
"o. c #B73C42",
"O. c #835B5A",
"+. c #845B59",
"@. c #B74245",
"#. c #8C645D",
"$. c #88665A",
"%. c #916A5E",
"&. c #90675E",
"*. c #896662",
"=. c #846766",
"-. c #926A61",
";. c #986F61",
":. c #82726E",
">. c #8B7B6B",
",. c #9B7364",
"<. c #837472",
"1. c #8B7B74",
"2. c #8E7E79",
"3. c #857978",
"4. c #957C7A",
"5. c #A37B66",
"6. c #A77F68",
"7. c #8F8073",
"8. c #8D817B",
"9. c #93847D",
"0. c #958772",
"q. c #9E9177",
"w. c #91826E",
"e. c #A88068",
"r. c #33348C",
"t. c #373887",
"y. c #2F3799",
"u. c #2F389A",
"i. c #303694",
"p. c #333993",
"a. c #313B9C",
"s. c #303798",
"d. c #342F81",
"f. c #303EA3",
"g. c #33469F",
"h. c #3F458B",
"j. c #2F4AAC",
"k. c #3243A4",
"l. c #3045AA",
"z. c #304AAD",
"x. c #384CA7",
"c. c #304BB3",
"v. c #304DB8",
"b. c #3152B5",
"n. c #3053BC",
"m. c #3659BB",
"M. c #2F51B1",
"N. c #3564BC",
"B. c #43549A",
"V. c #494D82",
"C. c #686FA4",
"Z. c #4B65A5",
"A. c #2E57C7",
"S. c #3055C2",
"D. c #305AC5",
"F. c #305CCB",
"G. c #3056CB",
"H. c #305CD3",
"J. c #304FC0",
"K. c #3061CD",
"L. c #3068CE",
"P. c #3064D4",
"I. c #316BD6",
"U. c #306CDB",
"Y. c #3066D8",
"T. c #3073DD",
"R. c #307ADE",
"E. c #3072D7",
"W. c #2F6FD7",
"Q. c #306FE1",
"!. c #3075E4",
"~. c #307CE3",
"^. c #3077E8",
"/. c #3079E9",
"(. c #2E75E8",
"). c #3083E5",
"_. c #3086E9",
"`. c #308DEA",
"'. c #308AE7",
"]. c #3093EC",
"[. c #309BEE",
"{. c #3097F0",
"}. c #309DF1",
"|. c #30A4F4",
" X c #30ACF6",
".X c #30AEF8",
"XX c #30B1F9",
"oX c #9A8D85",
"OX c #978882",
"+X c #9C918C",
"@X c #968F94",
"#X c #A3958C",
"$X c #A6988F",
"%X c #A9998F",
"&X c #A69A90",
"*X c #AB9D93",
"=X c #ADA296",
"-X c #AEA399",
";X c #B2A69A",
":X c #B5AA9D",
">X c #B8AC9F",
",X c #B9AEA1",
"<X c #B3A9A2",
"1X c #BDB3A5",
"2X c #BFB6A8",
"3X c #848FA6",
"4X c #C0B6A8",
"5X c #C5BCAD",
"6X c #C5BCAC",
"7X c #C8BFB1",
"8X c #C9C1B1",
"9X c #D0C7B9",
"0X c #D3CBBB",
"qX c #DAD2C2",
"wX c #E4DBCB",
"eX c #EAE2D2",
"rX c #F1E9D9",
/* pixels */
"                                                                                                                                ",
"                                                                                                                                ",
"                                                                                                                                ",
"                                                                                                                                ",
"                                                                                                                                ",
"                                                      G #.#.#.+.G O.#.+.G                                                       ",
"                                                      G #.-.-.#.G I -.#.G                                                       ",
"                        wXwXwXwXwXwXwXwXwXeX&X        D I #.#.-.#.#.-.#.D                                                       ",
"                    L OX9X[ [ [ [ [ [ [ ' -X1X_   c.k.D I #.#.-.-.;.;.#.! P.R.                                                  ",
"                    L oX7Xb y & & b % * + 3.5X) b.!.n.D S O.-.-.*.;.;.#.! ~.|.).                                                ",
"                    L 8.5X+X+X+X+X+X+X+X+X<X-X) T./.c.D G I -.-.-.-.-.#.~ E..X.X].U.                                            ",
"                    L <.OXoX<._ 9.oXoX9.:.OX9.) I.F.a.D #.$.-.-.;.,.-.#.~ F.).|.XX|.T.                                          ",
"                      &X8.3.' N [ 3.3.3.` 3.3XZ.n.K.b.D #.-.*.-.,.,.-.#.! R.].!.{.XX~.T.                                        ",
"                        L K K ^ K L K K K L h.S.U./.n.D #.;.;.-.6.,.-.#.! R.XX}.~._.R.[.[.T.                                    ",
"                        { 1X1X1XoX2.2X1X*X1.B.(./.U.k.D #.,.;.-.,.;.-.#.~ D.{.XX X'.P.].XX|.).                                  ",
"                        _ oXoXoX' <.oXoX*X1.Z.(.F.S.l.D #.;.;.-.-.-.-.#.! I.~._. XXX].T.`..X.X].F.                              ",
"                        { =X=X2X4X2X;XoX#X1.Z.S.D.^.n.D %.6.,.,.-.-.-.#.! ~..X).~.}.XXU.~.).|. XP.N.                            ",
"                        ' $X&X=X=X=X=X#X1.W k.P./.^.z.D %.5.,.5.5.,.-.#.~ I. XXX[.~.`.T.|.`.~.`.T.|.).                          ",
"                      g.` ;X:X&X<.1.:.` c k.!./.U.S.a.D #.,.,.5.e.5.;.#.~ F.~.}.XX|.R.H.|.XX}.!.U. XXX[.T.                      ",
"                    n.I.] 2X2X2X#X' R t.b.n./.P.n.I.b.D #.-.,.5.e.e.,.#.! R.[.!.`.XX~.~.~.{.XX.X).!.}.XX|.~.                    ",
"                  z.F.!.) 1.{ _ L x k.U.I.c.F.S.T./.b.D #.;.5.e.e.e.,.#.! R.XX|.~.).T.[.|.~._..X[.U.~.`.XX`.U.                  ",
"              b.U.D.S.m.L K L N t.n.^./.P.k.K.^.^.P.a.D #.;.5.e.e.5.;.&.~ D.]..X.X].P.].XX X).~._.~.|.~.).~.'.|.R.              ",
"            D.!./.D.r.9 5 & 5 d.P./.^.F.c.U./.!.F.D.z.D #.*.,.e.e.,.;.%.! T.).~.|.XX}.U._. XXX].P.R..X.X].Y.).XX X'.            ",
"        l.P./.^.F.a.8 9 * 6 x.j.!.U.S.n.z./.U.n.K./.n.D %.,.-.,.,.-.,.%.! ~.XX`.!.{..XT.~.~.}. XU.~.).|.XX}.R._. XXX[.U.        ",
"      T.c./.U.S.c.r.8 9 q D.(.c.F.n.P.!.z.F.n.U./.!.l.D #.,.,.,.,.,.,.#.~ L.|.XX}.~._.U. X].~._.T..X`.!.{.XX~.R.~.}.XXT.|.      ",
"    /.!.z.P.n.P.I.r.0 k.U./.!.l.n.T./.U.a.c.!./.U.S.k.d I #.,.5.5.,.#.I R K.~.{.XX.XR.H.}.XX|.~.U.|.XX}.~._.R.[.[.~.`.T. XXX    ",
"    /.U.k.S.T./.P.p.b.^./.U.c.F.^.^.P.n.n.n.^.F.n.U.n.4 1 V G I I G V 1 6 R.|.~._..X~.).~.`..XXX_.U.{.XX.X).H.].XX|.~.P.|.XX    ",
"    U.v.K.^.^.P.n.c.F.^.F.S.l.I.!.F.S.!.I.c.S.D.!./.b.4 > > < a a < > > 6 R.XX.X).~.U.[.|.).).|.[.U.~._..X`.T.~.`..X.X`.T.{.    ",
"    F.k.!.!.F.S.!.F.n.S.D.^.n.F.S.K.^./.F.l.P./.^.F.a.4 , C s a a s C , 6 S._. XXX[.U._..X.X`.~.).~..X).~.~.`. X~.).|. XP._.    ",
"  /./.c.P.S.K.^./.D.l.P./.^.c.f.I./.!.S.c.T./.Q.n.r.8 5 , a , , , , a , 4 a.c.R.|.XX|.U.~.|.XX}.H.T. XXX[.U.)..X.X`.~.].T.XXXX  ",
"/./.^.l.l.U./.!.S.v.T./.U.S.D.z.!.U.S.D.z.^.P.l.0 8 7 b 5 4 4 4 4 4 4 5 N p.y.k.P.]..XT.).~.{. XU.).~.}.XX|.R.~.|.XX}.P.U. XXXXX",
"/.Q.n.r.k./.U.S.n.n./.P.n.P./.z.D.n.U.!.l.S.p.8 8 x N E c.c.c.c.c.c.v.c.V.T V.i.a.n.~.U. X}.~.~.T.XX].!.`.XX~.~.~.{..Xb.c.R.|.XX",
"P.l.0 8 k.F.n.U.I.c.F.S.T./.Q.l.D.!./.U.p.0 8 8 R T B.F.^._.~.H.H.~._.^.F.B.T E p.a.a.S.{.XX X).U.|.XX|.~.).T.[.|.~._.z.i.l.P.`.",
"a.8 8 8 a.D.!./.P.a.D.^.^.P.z.K./.^.F.a.0 8 q T W N.W.S.j.M.z.k.k.z.M.j.S.W.N.W Q t.y.f.F._. XXX].U.]..XXX).H.].XX X).c.a.i.a.G.",
"p.0 0 r.P./.^.F.S.b.D.^.F.D.z.I.!.n.r.8 8 x ^ 3.k.M.j.f.x.x.g.k.k.g.x.x.f.j.M.k.<.^ E p.u.c.T.|.[.T.).). X_.R.~._. XXX].n.f.f.S.",
"  b.D.l.!.U.S.D.^.F.v.S.K./.n.n.k.0 8 7 R <.>X*XC.x.B.V.b b n n n n b b V.B.x.C.&X$X' W p.y.l.K.~.~.XX`.~.R.`..X).~.}. XU.'.R.  ",
"/././.c.F.n.P./.^.S.c.U./.!.c.0 8 8 x / oX5X8X5X:X@XL a C A V s s V A C a L @X:X5X8X>X1./ h.s.a.l.T.|.XX|.T.~..XXX].~._.T.XXXXXX",
"/./.!.k.k.T./.Q.n.n.^./.U.c.d.8 8 x ' =X8X8X8X8X7X&XJ G O.V ; @ @ ; V O.G J &X7X8X8X8X4XoX) E p.y.l.U.{.XX.XR.!.}.XX|.K.P.|.XXXX",
"/.U.c.d.t.^.P.n.n.n.^.F.a.0 8 q T 8.2X8X8X8X8X8X4X:.I -.U ; ; : : ; ; U -.I :.4X8X8X7X8X6X=X:.Q t.y.f.D._..X~.).~.`..XM.l.I.{..X",
"F.a.0 9 t.D.S.!.I.c.n.r.8 8 x ^ $X6X8X,X;X,X0XwX0X4.O.-.O.a k p p k a O.-.O.4.0XwX0X,X;X,X8X1X9.^ E p.a.c.R.U.[.|.).~.z.i.f.D._.",
"i.8 8 8 p.K.^./.K.r.8 8 7 R <.>X8X8X8X5X;X1XqXwXwX4X=.+.-.$.Z V V Z $.-.+.=.4XwXwXqX1X;X5X8X8X5X$X' W p.y.a.v.`..X.X`.n.a.a.a.S.",
"i.r.r.p.U./.!.D.p.8 8 x / oX5X8X6X0XwX0XwXeXeXwX8X;X1.U O.#.%.$.$.%.#.O.U 1.;X8XwXeXeXwX0XwX0X8X8X>X1./ h.s.a.n.~.|.XX}.D.J.J.G.",
"        /.U.c.d.8 9 x ' -X8X8X8X8X8X8X5X8X9X9X8X2X>X,X$X_ J v V V v J _ $X,X>X2X8X9X9X8X5X8X8X8X8X8X4XoX) E p.y.l.U.{.XX        ",
"        F.a.8 7 7 T 8.2X8X8X6X5X6X5X*X$X$X>X>X$X$X$X,X*X9.{ y s s y { 9.*X,X$X$X$X>X>X$X$X*X5X6X5X6X8X8X=X:.Q t.r.a.D.).        ",
"        w o u d n 9.>X>X>X>X*X#X%X:X;X;X;X:X:X;X;X;X9._ U P Z < Y Y J J _ 9.;X;X;X:X:X;X;X;X:X%X#X*X>X>X>X&X1.N d u w w         ",
"        .   C O.O.*.*.*.*.*.*.*.*.*.*.*.*.*.*.*.*.U $.I ,.5.%.M ,.;.#.G < P U *.*.*.*.*.*.*.*.*.*.*.*.*.*.*.*.O.O.C   .         ",
"            n Z v A O.G G O.G S C v P O.I S S C v %.,.#.I G C < P V V V a G C a C S S I O.P v C S G O.G G O.A n Z n             ",
"            % M v s s n n V n n V A J Z n n M a M %.G p i O O O O O O ; i C V , a M n n Z J A V n n V n n s s v M %             ",
"        X X X X @ @ d 2.oX&X&X&X&X&X&X&X#XOX<.L y I s O = - - O O - - = O - V < L <.OX#X&X&X&X&X&X&X&XoX2.d @ @ X X X X         ",
"        X X X + A a m -X5X8X8X8X8X8X8X8X8X,X*X9.a G e ; j l h 2 2 h l j ; e G a 9.*X,X8X8X8X8X8X8X8X8X5X-Xm a A + X X X         ",
"        X X X $ %.s m +X;X5X8X8X8X8X8X8X8X8X8X#Xy k - h .. .2 2 2 2  .| r - k y #X8X8X8X8X8X8X8X8X8X5X;X+Xm s %.$ X X X         ",
"        X X X $ ;.s m #X>X2X8X8X8X8X6X8X8X6X7X#Xa G e h ..r O O O O r ..h e G a #X7X6X8X8X6X8X8X8X8X2X>X#Xm s ;.$ X X X         ",
"              $ ;.s m &X8X8X8X8X8X0XqXeXeXqX8X#Xa I i h  .2 : = = : 2  .h i I a #X8XqXeXeXqX0X8X8X8X8X8X&Xm s ;.$               ",
"          X X $ ;.s m oX2X8X8X8X8XwXeXrXrXeX0X#Xy s - h  .} 3 l l 3 | X.h - s y #X0XeXrXrXeXwX8X8X8X8X2XoXm s ;.$ X X           ",
"        X X X $ #.s m $X>X4X6X5X4X4X6X0XqXqX6X#Xa S e r : : | j z  .X.o.h e S a #X6XqXqX0X6X4X4X5X6X4X>X$Xm s #.$ X X X         ",
"        X X X $ -.s m oX&X$X1X=X$X$X$X4X8X8X8X#XM %.s h l l X...o.o.@.o.h i G a #X8X8X8X4X$X$X$X=X1X$X&XoXm s -.$ X X X         ",
"        X X X $ #.s m $X>X;X>X;X>X2X;X5X,X>X>XoXa P i h X.....o.o.o.@. .h e A a oX>X>X,X5X;X2X>X;X>X;X>X$Xm s #.$ X X X         ",
"            X + Y a M <.2.2.2.oX#X+X2.#X9.1.:._ < V - r | 3 h  . .l .. .h - V y _ <.1.9.#X2.+X#XoX2.2.2.<.M a Y + X             ",
"              X # # # > t t t b b t t t t u B u y V i p p e e p p p f e e i V y u B u t t t t b b t t t > # # # X               ",
"                                            . > ^ N ` 1.:.] 7.>.>.7.] ( ] ' N ^ > .                                             ",
"                                              # ` 1.>.{ ( ] 7.w.q.q.q.>.>.q.7.` #                                               ",
"                                              + d <.7.7.1.1.w.w.0.0.0.0.7.7.<.d +                                               ",
"                                                % N / ` ` ` ` ` ` ` ` ` ` / N %                                                 ",
"                                                    % % $ $ $ $ $ $ $ $ % %                                                     "
};
