/* XPM */
static char *_02d13c93bd44c88f5f73b93b75f3740Ic47yFMPQujr3JFv[] = {
/* columns rows colors chars-per-pixel */
"64 64 212 2 ",
"   c None",
".  c #0F241C",
"X  c #10251E",
"o  c #122622",
"O  c #192625",
"+  c #132A24",
"@  c #1C2823",
"#  c #14252B",
"$  c #1D262B",
"%  c #162D2A",
"&  c #182E2E",
"*  c #15332C",
"=  c #16382A",
"-  c #162535",
";  c #192E32",
":  c #19253C",
">  c #172935",
",  c #173630",
"<  c #1A3334",
"1  c #163932",
"2  c #193B36",
"3  c #1D363A",
"4  c #1D3B3D",
"5  c #29292F",
"6  c #22272C",
"7  c #312E2C",
"8  c #2B2834",
"9  c #2B273A",
"0  c #21273F",
"q  c #342B36",
"w  c #3B2C3B",
"e  c #473436",
"r  c #4E353C",
"t  c #51353E",
"y  c #58393E",
"u  c #134635",
"i  c #15463B",
"p  c #1B423D",
"a  c #1B4136",
"s  c #12513A",
"d  c #254C3F",
"f  c #295D32",
"g  c #1D2444",
"h  c #1E244F",
"j  c #1E2C4C",
"k  c #1E3F40",
"l  c #1F2451",
"z  c #1D215E",
"x  c #22244E",
"c  c #282A49",
"v  c #30284B",
"b  c #232553",
"n  c #23245D",
"m  c #2B275B",
"M  c #342A58",
"N  c #392E59",
"B  c #223B54",
"V  c #3F325A",
"C  c #4D3342",
"Z  c #4F3840",
"A  c #583643",
"S  c #5F3B43",
"D  c #553747",
"F  c #4B3352",
"G  c #40335A",
"H  c #543853",
"J  c #663D4D",
"K  c #6C3E49",
"L  c #673C46",
"P  c #1E4442",
"I  c #1E4B46",
"U  c #1F4E48",
"Y  c #164A40",
"T  c #1B5445",
"R  c #1E534B",
"E  c #165A4A",
"W  c #1D5A4D",
"Q  c #155346",
"!  c #1C5C52",
"~  c #204E49",
"^  c #21474F",
"/  c #20514A",
"(  c #225845",
")  c #1D634E",
"_  c #15694B",
"`  c #15704C",
"'  c #1B6355",
"]  c #1C6B54",
"[  c #1A6659",
"{  c #1A6B5B",
"}  c #176C5F",
"|  c #1C7456",
" . c #1A7957",
".. c #1A735D",
"X. c #1B7C5C",
"o. c #25664C",
"O. c #2B6E4B",
"+. c #296247",
"@. c #326B42",
"#. c #2E724A",
"$. c #2E784D",
"%. c #317146",
"&. c #317549",
"*. c #347D49",
"=. c #237756",
"-. c #176F60",
";. c #167463",
":. c #187662",
">. c #177B64",
",. c #197B63",
"<. c #694446",
"1. c #764549",
"2. c #7A494B",
"3. c #774849",
"4. c #634556",
"5. c #684856",
"6. c #744A50",
"7. c #834E4C",
"8. c #8A554D",
"9. c #82514F",
"0. c #935C4F",
"q. c #8F5C51",
"w. c #945D50",
"e. c #996150",
"r. c #976050",
"t. c #1B835D",
"y. c #1A8B5F",
"u. c #1E925A",
"i. c #398D4C",
"p. c #35874B",
"a. c #3F9A4C",
"s. c #23855C",
"d. c #2B8C5A",
"f. c #288C5B",
"g. c #318D51",
"h. c #2F9255",
"j. c #25935D",
"k. c #2C935A",
"l. c #2C9C5C",
"z. c #269C5F",
"x. c #339656",
"c. c #369C56",
"v. c #3B9E53",
"b. c #319359",
"n. c #309C5A",
"m. c #2CA55D",
"M. c #2DA95D",
"N. c #34A356",
"B. c #3CA254",
"V. c #3BAD55",
"C. c #32AA5A",
"Z. c #30A75C",
"A. c #3DB155",
"S. c #178365",
"D. c #198464",
"F. c #178D67",
"G. c #198B64",
"H. c #188C68",
"J. c #179267",
"K. c #1A9365",
"L. c #199B67",
"P. c #179468",
"I. c #189668",
"U. c #179D69",
"Y. c #199E68",
"T. c #208C62",
"R. c #208760",
"E. c #229A62",
"W. c #209760",
"Q. c #1BA167",
"!. c #1DA265",
"~. c #1DA266",
"^. c #19A068",
"/. c #19A369",
"(. c #19A168",
"). c #17A169",
"_. c #27A560",
"`. c #21A364",
"'. c #23A362",
"]. c #29A660",
"[. c #2AA960",
"{. c #419F4B",
"}. c #44A64F",
"|. c #49A549",
" X c #49AD4D",
".X c #49A94B",
"XX c #47B14E",
"oX c #47B14E",
"OX c #4DB34B",
"+X c #4FB44A",
"@X c #4EB44A",
"#X c #4DB54B",
"$X c #49B24D",
"%X c #4AB24D",
"&X c #48B14E",
"*X c #48B24E",
"=X c #4CB34C",
"-X c #4CB54D",
";X c #4CB34B",
":X c #4FB94C",
">X c #51B549",
",X c #50B449",
"<X c #52B548",
"1X c #50B54A",
"2X c #51B549",
"3X c #54B948",
"4X c #54B647",
"5X c #42AF51",
"6X c #41AB51",
"7X c #41A450",
"8X c #42B051",
"9X c #44B151",
/* pixels */
"                                                      :.:.    :.:.    :.:.                                                      ",
"                                        ^.U.        f.c.K.I.m.c.K.I.L.G.' U ! :.    ;.;.:.                                      ",
"                                        Y._.l.    ;.d.=XC.~.M.=XC.~.~.m.=.O.=.:.  ;.,.f.,.;.                                    ",
"                                      `.`.8XB.,.,.>.k.+X+XC.C.+X+XC.M.5X`.V.B.,.,.,.b.6XD.>.:.                                  ",
"                                      oX&X+XV.L.L.I.M.+X+X&X&X+X+X=XV.`.Q.V.V.L.L.B.V.`.L.D.:.                                  ",
"                                ^.^.`.C.=X<X&XV.V.V.C.C.&X<X<X+X+XV.'.~.C.&X&XV.V.=Xa.| L.G.:.>.                                ",
"                                ^.Y.~.C.&X5X5X<X<X<X5XC.&X<X+X+X+XV.`.~.&X<X<X<X<X9Xp.R D.D...{                                 ",
"                                Y.~.C.+X+Xm.m.+X+X+X+X+X+X+X+X+X+X<XV._.&X<X+X+X&X[.t.! :.,.{ R                                 ",
"                          :.:.,.L.C.=X+X+Xm.m.+X+X+X+X+X+X+X+X+X+X+XOX&X+X+X<X&X_.Q.Y.K.,.G.X.W K.^.^.                          ",
"                          ;.;.;.S.E.V.+X+X5X5X+X+X+X+X+X+X+X<X&XC.5X<X<X+X<X5XM.V.V.V.V.N.'.P.t.N.A.g.3                         ",
"                          k.d.d.d.l.V.+X+X<X<X+X+X+X+X+X+X+X<XoX~.V.<X+X+X<X5XC.=X<X<X<X<XV.M.C.=X3Xp.3                         ",
"                      ^.^.C.=X+X+X+X+X+X+X+X+X+X+X+X+X+X+X+X<X&X`.V.<X+X+X+X+X+X+X+X=X&X+X+X+X+X+X=X*.3                         ",
"              :.:.:.D.^.^.~.C.+X+X+X+X+X+X+X+X+X+X+X+X+X+X+X<XoX`.V.<X+X+X+X+X+X+X<XV._.&X<X+X+X+Xb.' 3 I U U                   ",
"              ' :.:.D.^.^.U.~.M.M.9X<X+X<XV.m.C.&X<X<X<X+X<X8Xm.Q.'.V.+X+XV.V.<X+X<XV.^.].M.h.$.m.L.G.| P ! E .                 ",
"              R [ :.G.^.^.^.^.U.J.k.}.+XV.'.Q.C.&X<X&XV.=X<XV.^.m.~.m.+X+Xm.`.V.OX<X8XM.m.~.X.R G.Y.^.G.P R I +                 ",
"              U I ' ,.K.Y.Y.Y.L.D.;.f.6XL.Y.C.OX&X&XV._.&X<XV._.&XM.m.+X+XC.Q.`.&X=X&X+X+XC.t.R { G.K.{ P 3 3 < o               ",
"        U U U I 4 3 P ' K.G.G.Y.L.D.,.,.,.c.+X&X_.~.M.&X+X+X=X&X+Xm.m.+X+X=XC.`.oXC.C.+X+X=Xi.R R { ,...R 4 < o X               ",
"      U U ! ! R | I 3 R ,.' ! G.U.m.v.v.v. X<X&X~.m.8X<X+X+X<X=XC.C.8X+X+X<XV.Q.m.K.K.C.=X<X.Xi.t.>.{ ! R k % X % < 3 3         ",
"      U U { { R X.W P R ' P I G.m.V.9X<X3X<X<X&X`.V.<X+X+X+X<X&X~.V.<X+X+X<X8Xm.Q.S.>.K.c. X<X=XC.K.{ I U P < % < I T 4         ",
"      U U [ { R U U R R ( d ) `.5Xm.M.OX XOXOX6X~.V.<X+X+X+XOX5X`.C.=X+X+X+X<XoX`.D.{ :.:.c.=XOX Xm.t.R R R P 3 4 X.t.I 3       ",
"        U R ! { R I ! X.{.|.N.Q.~.Q.M. Xs.B.B.D.Y.V.<X+X+X<XV.`.^.~.C.+X+X+X<X&X`.] R W :.K.C. Xs.K.K.{ R I I U { K.X.3 3       ",
"U I I I 4 4 P R X.....E.&X3XV.^.Y.F.R.f.,.s.s.,.N.&X<X+X<X<XV.Y.G.S.k.&XC.8X<XOXV.j...[ ! ' =.f.,.I.G.! P 4 P R :...T % %       ",
"P R W I 4 3 3 p G.D.S.E.&X9XM.^.^.K.>.;.D.>.>.G. X<X<XOXB.V.M.G.{ } d.&XK.B.<X<X<XA.E.:.! U ! ;.{ D.| P 3 3 4 R [ R < . .       ",
"3 ! { W R P 3 4 { :.;.X.6Xm.L.Y.L.Y.K.,.L.D.D._.&X X=X Xs.F.G.{ W [ f.7X,.v.+X&X+X<Xv.:.:.! ' ..R [ ! 3 4 3 4 I I 4 % +         ",
"3 ! D.K.:.! P 3 R { { W W.| | L.D.K.K.,.L.S.f.&XOXk.b. X,.>.{ W { :.,.,.,.v.V._.&X<Xv.:.:.:.:...R R I 3 I 4 P I % o % < 3 3 3 3 ",
"3 P W ] ! R W | R [ [ R ' R O.V.v.V.m.K.Y.K.E.M.k.,.,.f.K.,.{ { :.G.K.J.K.'.E.G.m.l.s.:.:.S.J.F.t.) P 3 I P W  .i + % I ! ' I % ",
"3 3 4 U ! ' s.M.| X.X.! U I %.<X<X4XV.^.^.K.L.U.G.>.;.>.L.K.D.>.D.L.Y.K.Y.L.S.,.F.S.;.,.D.E.M.M.^...I 3 I ' t.Y.| i < I E ' Y X ",
"  3 4 R { F.m.}.`.^.K.:.W U &.+X+X=XC.Y.Y.D.D.L.L.D.:.D.L.Y.G.,.L.^.K.,.L.D.,.,.,.:.:.,.L.C.OX&X_.G.' 3 I X.L.^.^.| I < + % % X ",
"      4 R { | o.K.^.K.:.:.-.d.+X+XC.K.D.L.D.:.,.,.,.D.L.Y.G.,.,.L.^.K.,.L.D.D.K.,.:.:.,.L.~.C.+X&X].| 3 I R | Y.^.Y.| < o o o   ",
"    3 3 4 I p 1 ) ,.D.>.K.n.N.M.M.s.! R ,.{ [ ,.x.j.I.^.^.| ! ' D.G.D.>.L.I.z.C.K.J.X.! ] ,.K.M.k.E.G.! U P I ] ] | T + X .     ",
"  3 3 3 3 3 % + R [ { ,.t.N.Z.I.U.' 3 3 ! R ! G.&XV._.^.^.| R R :.{ ..G.Y.).M.=XC.~.t.I P R ..F.{ G.I.:.' P P I I p 1 * * <     ",
"< 3 4 4 3 3 < * [ W ! :.W X.G.:.K.W 3 4 I I ] _.&X<XV.^.^.G.{ R { ! ] ^.^.U.M.+X+XM.t.I 3 3 U { R X.G.....' R I I * * U U P 3 < ",
"+ 2 ! { R I P 3 4 3 R :.:.' R R W P 4 I U I #.&X+X<XV.^.^.^.| 4 U U ] Y.^.U.M.+X+XM. .3 3 3 3 4 3 [ ..R R t.| 3 3 3 4 U U U 2 + ",
"X % 1 i I 2 i ! P @.g.G.>.{ ! I I P P R [ R %.<X<XV._.L.| ,...P 4 P ' D.) t.M.=XC.C.h.! 3 4 P P P R ' { X.L.G.! 3 3 < * * * *   ",
"X X . + I * u D.$.|.A.Y.G.,.{ U I W ! ' :.! %.OXA._.U.G.I ! ' I P P W ! 3 ] '.C.~.A.B...P I U U U P R { G.K.G...4 3 < . . .     ",
"X X X + p % s `.&X<XV.L.K.D.[ U R { >.:.:.! &.&XE.Y.K.[ 4 P U U U U U I 4 ! D.L.K.V.N.:.R I U U I 4 4 R :.:.:.{ P P 2 X +       ",
"  X X X + X s `.&X<XN.,.! { { R { :.,.:.:.;.d..Xo.t.X.4 3 P U U U U U U I U ' :.! s.~.K.W I R I 4 3 4 R ..' R R { U % + p       ",
"        % o , W #.@.+.R 1 p ' t.F.K.D.:.:.>.=.O./ ) W P P I W { { W I U U I ! ..R W X.D.R ! { [ ' U P P U 2 * 1 W P < < 4 *     ",
"        < o % 4 P 3 3 4 + o ( M.M.`.K.:.>.>.[ I I R R U U I ! >.>.! I U U I ! :.' R R ' R { >.>.>.{ I % % o . + p 4 3 k 3 % +   ",
"      < % + 1 I 3 3 3 < + o f OX&Xm.F.:.:.,.{ U W { { U U R ' :.:.! I U U R ' :.:.! U R U { :.:.:.>.E o X X X + < 4 P I 4 3 3   ",
"      4 P I I I 3 3 3 3 < 4 %.&X_.G.>.:.W t.X.W G.D.[ U U [ :.:.:.! I U U [ :.:.:.! ! { R { { W :.>.! < o . + < + 2 U U I 4 3   ",
"    W  .{ ! p * 3 P k 3 P ] s.f.) { { ! [ b.N.t.D.D.{ U P ' D.K.J.X.! I P R ! ' :.{ { :.R U P P :.' I P < o % < o % p I , % %   ",
"  & Y t.[ R 2 o 4 I I P I t.K.! < R W p ,.B.V.K.>.{ W 2 < R ,.~.M.T.{ I 4 4 P U ! ,.D...R 4 < , Q p 4 I P < % < o . % 2 * +     ",
"  . * P 4 P 2 + P I I U U t.t.P % 2 2 = u.8Xv.,.:.! 2 X X 2 ] `.oXd.[ I 4 3 k I 3  .L.:.W P ; o X % 4 U I P 3 < o o o + P       ",
"  X X % < P 2 + < % , U U { [ 4 < 4 & = {.:Xv.:.:.i X X X % W `.oXd.[ U I 4 4 I 3  .^.K.:.I 3 < o X , I 4 P 2 o X % % o j       ",
"    * 2 P 2 % X + X u X.{ :.{ P 4 3 < a l.l.=.! R 2 % % o < ] ~.M.T.' k k < < 4 4 [ I.^.K...U < o . % P P 2 * < < % % : n       ",
"      / U * . X X * _ Y...[ R p p 3 3 p ] [ R P 3 3 3 3 % 2 ] Y.J...R 3 ; o + 3 3 U ..K.^.H.' < o . % 3 P * o < < + #           ",
"              X X E G.y.T 4 % + p 4 < 3 3 3 4 3 3 3 3 3 3 3 W L.,.' I < + o % 3 3 3 I :.K.D.! < + o % < < + X X X o - n         ",
"                X ` G.T * o o X + + % 3 I I P 3 3 3 3 3 3 3 W L.,.:.! 3 < < 3 3 3 3 k W ..R 3 3 < < % o o X X X X - b n n       ",
"                X T W * X . + % X + < P U P 2 % % 2 P P P 3 I ] ' ' R 4 P 4 3 3 % < 3 P I 4 3 3 % % + X X X o : : l   n n n     ",
"                * 2 * . X o ; 3 % 2 P U P < % X X 2 / U I < < P 2 p 4 3 I P < % o % < < 3 3 < % X . X X X X #       n n n n     ",
"                I , + + X : c < < P I I 3 % X X X 2 ~ I 3 + % < + % 3 3 I P < X X X X o < 3 % X X X X X o X # n   n n n n       ",
"                  I I I     : o o < 3 3 3 % X X X p I 3 + X % < o X % 3 I U 2 X X X X X o o o X X X X o g # # n   n n n         ",
"                    ^ B     h - o + % % % o X X X % < < o . o + X . o % 4 ~ p X X X X X X X X o - o o : n g g n n n n n         ",
"                        n n   l o . . . . X X X X . % < o X X X X X X X % 4 2 % X X X X X . . o l : :         n n n n n n       ",
"                      n n n   x o o o o o X X X X . % < o X X X X X X X X % 3 < o X X X X o o o x   n n n n n n n n             ",
"                        n n   b 9 8 8 8 8 O . X X . $ 8 o . X X X X X X X o o o X X X X X 6 8 9 b   n n n n n n n n             ",
"                          n   n x 9 w A A q $ 5 e r t t 8 o . . X X X X X X X X X X . @ e y C c n   n n n n n n n n             ",
"                          n   m F C S 7.7.<.Z C K 2.7.2.C 5 O O X . X X X X . . X X . @ D J H     n n n n n n n n n             ",
"                          n   M J K 2.q.q.w.8.1.1.8.e.0.2.r w q O X X X X . o @ X o o o b   n n n n n n n n       n             ",
"                          n n n M M N V G J 7.0.0.w.e.r.0.3.L S q O . X X . 7 y @ - l l n   n n n n n n   n       n             ",
"                            n       z z   6.9.4.4.4.4.4.4.H F F v g : : : : c F 0 h     n n n n n n n                           ",
"                                          5.5.                                      n       n                                   ",
"                                          n n n n n n n n n n n n n n n n n n n n n n       n         n                         "
};
