/* XPM */
static char *_86bbe675e864cf5a99c6a1a5dcbb585nKzLWF1ubwtEzIvs[] = {
/* columns rows colors chars-per-pixel */
"64 64 154 2 ",
"   c #4C2E33",
".  c #502F33",
"X  c #4D3133",
"o  c #4B3B36",
"O  c #523233",
"+  c #593634",
"@  c #5F3934",
"#  c #613A35",
"$  c #693F35",
"%  c #474C3A",
"&  c #4B4A3A",
"*  c #465E3F",
"=  c #485A3E",
"-  c #4C553C",
";  c #5E5F3E",
":  c #6C4136",
">  c #6B4B38",
",  c #744637",
"<  c #774837",
"1  c #7C4C37",
"2  c #714E39",
"3  c #7E4D38",
"4  c #665A3C",
"5  c #72553A",
"6  c #7C5139",
"7  c #47603F",
"8  c #4E613F",
"9  c #5B633F",
"0  c #60603E",
"q  c #476140",
"w  c #4D6641",
"e  c #4A6B42",
"r  c #536641",
"t  c #5B6540",
"y  c #526A41",
"u  c #5A6C41",
"i  c #4C7545",
"p  c #447B47",
"a  c #4A7946",
"s  c #547444",
"d  c #587744",
"f  c #577944",
"g  c #597944",
"h  c #707A46",
"j  c #717C48",
"k  c #814F38",
"l  c #855138",
"z  c #8C5539",
"x  c #8E5839",
"c  c #925A3A",
"v  c #985F3A",
"b  c #9E633B",
"n  c #A0643B",
"m  c #4D8348",
"M  c #568547",
"N  c #5B8447",
"B  c #558B49",
"V  c #5C8E49",
"C  c #55904A",
"Z  c #5D924A",
"A  c #648843",
"S  c #6E9E47",
"D  c #62954A",
"F  c #689349",
"G  c #64994B",
"H  c #6A9C4B",
"J  c #709649",
"K  c #729E4D",
"L  c #6FA04C",
"P  c #75A44C",
"I  c #79A74C",
"U  c #77A84D",
"Y  c #7DAA4D",
"T  c #74A147",
"R  c #538E66",
"E  c #619A68",
"W  c #6AAA6E",
"Q  c #7FBB74",
"!  c #828C5C",
"~  c #84AD47",
"^  c #82AE4E",
"/  c #95AF4F",
"(  c #86B24E",
")  c #8CB54F",
"_  c #8FB84F",
"`  c #92BA4F",
"'  c #86B352",
"]  c #95BD50",
"[  c #98BF50",
"{  c #A1AF57",
"}  c #AFB256",
"|  c #B2B45D",
" . c #8BBE65",
".. c #8EBD71",
"X. c #C79164",
"o. c #C89671",
"O. c #9DC24D",
"+. c #9CC250",
"@. c #A6C74C",
"#. c #A7C94E",
"$. c #ACCC4E",
"%. c #A2C751",
"&. c #A5C952",
"*. c #A8CB52",
"=. c #A9CC52",
"-. c #AACD52",
";. c #ABCD52",
":. c #AACC52",
">. c #ABCE52",
",. c #A9CD51",
"<. c #ACCF52",
"1. c #ADCE50",
"2. c #A9CC52",
"3. c #B8C65B",
"4. c #ACD052",
"5. c #B1D253",
"6. c #96CD77",
"7. c #9AD077",
"8. c #9ED37A",
"9. c #CFC466",
"0. c #C4CB60",
"q. c #D3C965",
"w. c #EFCE7D",
"e. c #3B8DA4",
"r. c #52A485",
"t. c #76B687",
"y. c #75BC85",
"u. c #68B489",
"i. c #5190A5",
"p. c #5AA2A6",
"a. c #5BA7A8",
"s. c #63A8AD",
"d. c #6BC3B2",
"f. c #70C7B3",
"g. c #72CEB5",
"h. c #50AEE7",
"j. c #7EBEEE",
"k. c #76B4EB",
"l. c #78E6F1",
"z. c #76E3F9",
"x. c #7BE9F8",
"c. c #89CF8F",
"v. c #94D388",
"b. c #95D891",
"n. c #86DBB7",
"m. c #E8C682",
"M. c #F7D48D",
"N. c #E5D29F",
"B. c #F6DDA5",
"V. c #8CE6E0",
"C. c #85E9F3",
"Z. c #A3F0FC",
"A. c #F5E8D8",
"S. c #DBF9FC",
/* pixels */
"b b b b b b b b b b b b b b b b b b b b b b b b b b b b b b b b b b b b b b b b b b b b b b b b b b b b b b b b b b b b b b b b ",
"b b b b b b b b b b b b b b b b b b b b b b b n n b b b b b b b b b n b b b b b b b b b b b b b b b b b b b b b b b b b b b b b ",
"b b b b b b b b b b b b b b b b b b b b b b v x x v b b b b b b b c x c b b b b b b b b b b b b b b b b b b b b b b b b b b b b ",
"b b b b b b b b b b b v v v b b v v v v b b z > > z b b v v b b v 6 > 2 c b b v v v b b v v v v b b v v v b b b b b b b b b b b ",
"b b b b b b b b b b c < < < l v 1 < < 1 v l 4 i i 4 l v 1 < l v 1 9 a s 2 c c < < < l v 1 < < 1 v l < < < c b b b b b b b b b b ",
"b b b b b b b b b x 5 r r r 4 6 9 r r 9 6 4 f D D f 4 6 9 y 4 6 9 N G Z y 5 5 r r r 4 6 9 r r 9 6 4 r r r 5 x b b b b b b b b b ",
"b b b b b b n b c 5 u B B C f ; M B B M ; e B I ( H d ; M C f ; M P _ ^ Z u u B B B f ; M B B M ; f C B B u 5 c b n b b b b b b ",
"b b b b b b v c < r C Y Y I D m P Y Y P m p B Y %._ G B P Y H m P +.=.%.^ B B P Y Y H m P Y Y P m D I Y Y C r < c v b b b b b b ",
"b b b b b l < < , r H %.%.( D B ] &.&.] B p B Y %.*._ P +.&.Y B ] =.=.=.%.G B Y +.&.Y B ] &.&.] B D ( %.%.H r , < < l b b b b b ",
"b b b b l 4 r r r N Y =.=.+.^ H %.<.<.%.H Z P [ &.=.%.+.*.<._ H %.=.=.=.=.Y P [ *.<._ H %.<.<.%.H ^ +.=.=.Y N r r r 4 l b b b b ",
"b b v z 4 f Z H H L ( =.=.=.+._ &.=.=.&._ ( ] =.=.=.=.=.=.=.+._ &.=.=.=.=.] ] =.=.=.+._ &.=.=.&._ +.=.=.=.( L H H Z f 4 z v b b ",
"b n x > i D ) =.=.) ) =.=.=.=.=.=.=.=.=.=.=.=.=.=.=.=.=.=.=.=.=.=.=.=.=.=.=.=.=.=.=.=.=.=.=.=.=.=.=.=.=.=.) ) =.=.) D i > x n b ",
"b n x > i D ) =.=.&.&.=.=.=.=.=.=.=.=.=.=.=.=.=.=.=.=.=.=.=.=.=.=.=.=.=.=.=.=.=.=.=.=.=.=.=.=.=.=.=.=.=.=.&.&.=.=.) D i > x n b ",
"b n x > a G Y ) &.=.=.=.=.=.=.=.=.=.=.=.=.=.=.=.=.=.=.=.=.=.=.=.=.=.=.=.=.=.=.=.=.=.=.=.=.=.=.=.=.=.=.=.=.=.=.&.) Y G a > x n b ",
"b b c 6 9 N L ) &.=.=.=.=.=.=.=.=.=.=.=.=.=.=.=.=.=.=.=.=.=.=.=.=.=.=.=.=.=.=.=.=.=.=.=.=.=.=.=.=.=.=.=.=.=.=.&.) L N 9 6 c b b ",
"b b b c 2 u P *.=.=.=.=.=.=.=.=.=.=.=.=.=.=.=.=.=.=.=.=.=.=.=.=.=.=.=.=.=.=.=.=.=.=.=.=.=.=.=.=.=.=.=.=.=.=.=.=.*.P u 2 c b b b ",
"b b c 2 s Y %.=.=.=.=.=.=.=.=.=.=.=.=.=.=.=.=.=.=.=.=.=.=.=.=.=.=.=.=.=.=.=.=.=.=.=.=.=.=.=.=.=.=.=.=.=.=.=.=.=.=.%.Y s 2 c b b ",
"b n x > a ) 5.=.=.=.=.=.=.=.=.=.=.=.=.=.=.=.=.=.=.=.=.=.=.=.=.=.=.=.=.=.=.=.=.=.=.=.=.=.=.=.=.=.=.=.=.=.=.=.=.=.=.5.) a > x n b ",
"b b c 6 t J ] =.=.=.=.=.=.=.=.=.=.=.=.=.=.=.=.=.=.=.=.=.=.=.=.=.=.=.=.=.=.=.=.=.=.=.=.=.=.=.=.=.=.=.=.=.=.=.=.=.=.] J t 6 c b b ",
"b b b v 1 9 F +.%.&.=.=.=.=.=.=.=.=.=.=.=.=.=.=.=.=.=.=.=.=.=.=.=.=.=.=.=.=.=.=.=.=.=.=.=.=.=.=.=.=.=.=.=.=.&.%.+.F 9 1 v b b b ",
"b b b b v 6 0 V P +.=.=.=.=.=.=.=.=.=.=.=.=.=.=.=.=.=.=.=.=.=.=.=.=.=.=.=.=.=.=.=.=.=.=.=.=.=.=.=.=.=.=.=.=.+.P V 0 6 v b b b b ",
"b b b b l 4 d G _ %.=.=.=.=.=.=.=.=.=.=.=.=.=.=.=.=.=.=.=.=.+._ &.=.=.=.=.0.q.q.q.3.=.=.=.=.=.=.=.=.=.=.=.=.%._ G d 4 l b b b b ",
"b b v z 4 e B Y &.=.=.=.=.=.=.=.=.=.=.=.=.=.=.=.=.+.+.=.=.+.( I ` %.=.&.[ 9.M.B.w.3.O.=.=.=.=.=.=.=.=.=.=.=.=.&.Y B e 4 z v b b ",
"b n x > i m Z ^ %.=.=.=.=.=.=.=.=.=.=.=.=.=.=.=.=.( ^ %.*.( P P P ] <.%.^ | N.A.m.{ ) =.=.=.=.=.=.=.=.=.=.=.=.%.^ Z m i > x n b ",
"b n x > i Z ^ %.*.=.=.=.=.=.=.=.=.=.=.=.=.=.=.=.=.( P ^ %.( P P P ] =.*.%.K ! o.X.} %.=.=.=.=.=.=.=.=.=.=.=.=.*.%.^ Z i > x n b ",
"b b v z 4 f H _ &.=.=.=.=.=.=.=.=.=.=.=.=.=.=.=.=.) P P ( G Z I ` _ ( ( ( S A h j / 4.=.=.=.=.=.=.=.=.=.=.=.=.&._ H f 4 z v b b ",
"b b b b l 4 d G _ %.=.=.=.=.=.=.=.=.=.=.=.+.] ] ] P G P P Z G ) ] ^ P P ( Q u.r.r. .<.=.=.=.=.=.=.=.=.=.=.=.%._ G d 4 l b b b b ",
"b b b b v 6 ; B P +.=.=.=.=.=.=.=.=.=.=.=._ I P P V V H P I _ %.^ P P ^ +.n.x.C.l.v.@.=.=.=.=.=.=.=.=.=.=.=.+.P B ; 6 v b b b b ",
"b b b v 1 9 M P +.*.=.=.=.=.=.=.=.=.=.=.=.&.` P P P D B T ` &.=.%.^ ( +.^ g.Z.S.C.y.) =.=.=.=.=.=.=.=.=.=.=.*.+.P M 9 1 v b b b ",
"b b b v < y C Y &.<.=.=.=.=.=.=.=.=.=.=.=.=.&.` I P H G _ &.=.=.=.+.+.*.] W s.k.h.t.O.=.=.=.=.=.=.=.=.=.=.=.<.&.Y C y < v b b b ",
"b b b b l 4 f H Y _ +.=.=.=.=.=.=.=.=.=.=.=.=.&._ ( ( _ &.=.=.=.=.=.=.=.=.~ E p.p...$.=.=.=.=.=.=.=.=.=.=.+._ Y H f 4 l b b b b ",
"b b b b v 6 ; m B H _ =.=.=.=.=.=.=.=.=.=.=.=.=.=.=.=.=.=.=.=.=.=.=.=.=.=.=.=.=.=.=.=.=.=.=.=.=.=.=.=.=.=._ H B m ; 6 v b b b b ",
"b b b v 1 9 M P ] %.&.=.=.=.=.=.=.=.=.=.=.=.=.=.=.=.=.=.=.=.=.=.=.=.=.=.=.=.=.=.=.=.=.=.=.=.=.=.=.=.=.=.=.&.%.] P M 9 1 v b b b ",
"b b c 6 9 N P +.=.=.=.=.=.=.=.=.=.=.=.=.=.=.=.=.=.=.=.=.=.=.=.=.=.$.$.$.=.=.=.=.=.=.=.=.=.=.=.=.=.=.=.=.=.=.=.=.+.P N 9 6 c b b ",
"b n x > a G _ =.=.=.=.=.=.=.=.=.=.=.=.=.=.+.] [ &.=.%.] ] ] +.&.] 6.b.v.=.O.] ] ] %.=.=.=.=.=.=.=.=.=.=.=.=.=.=.=._ G a > x n b ",
"b n x > i D ) =.=.=.=.=.=.=.=.=.=.=.=.=.=._ P Y %.<.] P P I _ %.^ f.z.V.8.' T P Y +.=.=.=.=.=.=.=.=.=.=.=.=.=.=.=.) D i > x n b ",
"b n x > i D ) =.=.=.=.=.=.=.=.=.=.=.=.=.=.&.` Y %.<.] P P ` &.*.%.a.j.S.V.y.T Y +.*.=.=.=.=.=.=.=.=.=.=.=.=.=.=.=.) D i > x n b ",
"b b v z 4 f H _ *.=.=.=.=.=.=.=.=.=.=.=.=.=.%.+.&.] Y P P ^ ( _ &.E i.j.z.c.` +.=.<.=.=.=.=.=.=.=.=.=.=.=.=.=.*._ H f 4 z v b b ",
"b b b b l 4 d G Y +.=.=.=.=.=.=.=.=.=.=.=.=.%.+.&.( I ( I P I _ &.~ R e.d.7.#.[ ] ] +.=.=.=.=.=.=.=.=.=.=.=.+.Y G d 4 l b b b b ",
"b b b b v 6 ; m B ) <.=.=.=.=.=.=.=.=.=.=.=.] Y +.) _ %.Y P ) %.%.=.( B P ] ` P P I _ =.=.=.=.=.=.=.=.=.=.<.) B m ; 6 v b b b b ",
"b b b v 1 9 M P ] &.=.=.=.=.=.=.=.=.=.=.=.=.] P Y ] &.%.Y ` ] Y Y +.` P +._ I P P ` &.=.=.=.=.=.=.=.=.=.=.=.&.] P M 9 1 v b b b ",
"b b b v < y C Y &.<.=.=.=.=.=.=.=.=.=.=.=.=.%.` P ] <.&.[ _ Y P ` %.%.+.&.( L I ` &.=.=.=.=.=.=.=.=.=.=.=.=.<.&.Y C y < v b b b ",
"b b b b l 4 f G _ %.=.=.=.=.=.=.=.=.=.=.=.=.=.&._ +.=.=.=.] ( _ &.=.=.=.=.] ( _ &.=.=.=.=.=.=.=.=.=.=.=.=.=.%._ G f 4 l b b b b ",
"b b b b v 6 ; B P +.=.=.=.=.=.=.=.=.=.=.=.=.=.=.=.=.=.=.=.=.=.=.=.=.=.=.=.=.=.=.=.=.=.=.=.=.=.=.=.=.=.=.=.=.+.P B ; 6 v b b b b ",
"b b b v 1 9 M P +.*.=.=.=.=.=.=.=.=.=.=.=.=.=.=.=.=.=.=.=.=.=.=.=.=.=.=.=.=.=.=.=.=.=.=.=.=.=.=.=.=.=.=.=.=.*.+.P M 9 1 v b b b ",
"b b c 6 9 N P +.*.=.=.=.=.=.=.=.=.=.=.=.=.=.=.=.=.=.=.=.=.=.=.=.=.=.=.=.=.=.=.=.=.=.=.=.=.=.=.=.=.=.=.=.=.=.=.*.+.P N 9 6 c b b ",
"b n x > a G _ =.=.=.=.=.=.=.=.=.=.=.=.=.=.=.=.=.=.=.=.=.=.=.=.=.=.=.=.=.=.=.=.=.=.=.=.=.=.=.=.=.=.=.=.=.=.=.=.=.=._ G a > x n b ",
"b b c 2 s V ( =.=.=.=.=.=.=.=.=.=.=.=.=.=.=.=.=.=.=.=.=.=.=.=.=.=.=.=.=.=.=.=.=.=.=.=.=.=.=.=.=.=.=.=.=.=.=.=.=.=.( V s 2 c b b ",
"b b b c 2 y L *.=.=.=.=.=.=.=.=.=.=.=.=.=.=.=.=.=.=.=.=.=.=.=.=.=.=.=.=.=.=.=.=.=.=.=.=.=.=.=.=.=.=.=.=.=.=.=.=.*.L y 2 c b b b ",
"b b c 6 9 N L ) &.=.=.=.=.=.=.=.=.=.=.=.=.=.=.=.=.=.=.=.=.=.=.=.=.=.=.=.=.=.=.=.=.=.=.=.=.=.=.=.=.=.=.=.=.=.=.&.) L N 9 6 c b b ",
"b n x > a G Y ) &.=.=.=.=.=.=.=.=.=.=.=.=.=.=.=.=.=.*.=.=.=.=.=.=.=.=.=.=.=.=.=.=.=.=.=.=.=.=.=.=.=.=.=.=.=.=.&.) Y G a > x n b ",
"b n x > i D ) =.=.&.&.=.=.=.=.=.=.=.=.=.=.=.=.=.=.=.=.=.=.=.=.=.=.=.=.=.=.=.=.=.=.=.=.=.=.=.=.=.=.=.=.=.=.&.&.=.=.) D i > x n b ",
"b n x > i D ) =.=.) ) =.=.=.=.=.=.=.=.=.=.=.=.=.=.=.=.=.=.=.=.=.=.=.=.=.=.=.=.=.=.=.=.=.=.=.=.=.=.=.=.=.=.) ) =.=.) D i > x n b ",
"b n x : & s Z H H P ( =.=.=.+._ &.=.=.=.=.=.=.=.=.] ] =.=.=.=.&._ +.=.=.=.=.=.=.=.] ] =.=.=.=.&._ +.=.=.=.( P H H Z s & : x n b ",
"b n x $ . % q * * M Y =.=.%.^ H %.=.=.=.=.=.=.*.[ P Y =.=.=.=.%.H _ <.*.+.%.=.&.[ P Y =.=.=.=.+.H ^ %.=.=.Y M * * q % . $ x n b ",
"b b c , + O X   X * H %.%.^ Z B ] =.=.*.%.%.%.+.Y B H %.=.=.=.] B Y &.+.P _ *.%.Y B G %.=.=.*.] B Z ^ %.%.H * X   X O + , c b b ",
"b b b c , : #     * C Y Y Z p m P +.=.%.^ Y Y Y P B B ^ %.=.+.P m H Y P B G _ %.Y B B ^ %.=.+.P m p Z Y Y C *     # : , c b b b ",
"b b b b c c 3 # X o w B B 8 = m L ^ _ ^ Z B B B B 8 8 Z ^ _ U M - s C M - i H ( I B m Z ^ _ ^ L m = 8 B B w o X # 3 c c b b b b ",
"b b b b b n c : O   o 7 7 o o w D H G V w * q q * o o w Z H N = X % q = X % s D H s * w V G H D w o o 7 7 o   O : c n b b b b b ",
"b b b b b b c , + O X         o e i i e o         X   o e a = X O X         % i i %   o e i i e o         X O + , c b b b b b b ",
"b b b b b b b c , : #         X o o o o X         # # X o o X O $ +         X o o X   X o o o X X         # : , c b b b b b b b ",
"b b b b b b b b c c 3 # # # # @         @ # # # # k k @     O $ z , # # # # +     + # @         @ # # # # 3 c c b b b b b b b b ",
"b b b b b b b b b n c l l l l 1 # + + @ 1 l l l l c c 3 # + $ l b x k l l l < + + < l 1 # + + # 1 l l l l c n b b b b b b b b b ",
"b b b b b b b b b b b b b b b v < , : < v b b b b b b v < : k b b b b b b b x , , x n v < , , < v b b b b b b b b b b b b b b b "
};
