/* XPM */
static char *_0aa5d9db88f4bcfdb1ebc426bde32c4CLaLEvp7hiESnqZb[] = {
/* columns rows colors chars-per-pixel */
"64 64 108 2 ",
"   c #F2B993",
".  c #F2B992",
"X  c #F1B891",
"o  c #F1B790",
"O  c #F0B68F",
"+  c #EFB68F",
"@  c #F0B790",
"#  c #EFB58E",
"$  c #F1B791",
"%  c #F2B892",
"&  c #F0B690",
"*  c #EFB690",
"=  c #F1B892",
"-  c #EFB590",
";  c #EEB590",
":  c #EDB58F",
">  c #EDB48F",
",  c #EEB58F",
"<  c #EFB691",
"1  c #ECB48E",
"2  c #ECB38D",
"3  c #EBB28B",
"4  c #EAB28B",
"5  c #EBB38C",
"6  c #EDB48E",
"7  c #EEB58E",
"8  c #F1B68F",
"9  c #EBB28C",
"0  c #EBB18B",
"q  c #EAB18A",
"w  c #EAB18B",
"e  c #F0B791",
"r  c #EAB08A",
"t  c #EEB48D",
"y  c #F0B691",
"u  c #EEB48F",
"i  c #ECB38C",
"p  c #E9B089",
"a  c #EAB089",
"s  c #ECB48D",
"d  c #EEB48E",
"f  c #EDB48D",
"g  c #EDB38C",
"h  c #ECB28C",
"j  c #E9B189",
"k  c #E8B089",
"l  c #EBB38B",
"z  c #ECB38B",
"x  c #EDB38D",
"c  c #EFB58F",
"v  c #EDB38E",
"b  c #ECB38E",
"n  c #EEB690",
"m  c #ECB28B",
"M  c #EEB48C",
"N  c #F0B58E",
"B  c #EDB48C",
"V  c #EBB38D",
"C  c #EBB28D",
"Z  c #EBB28E",
"A  c #EAB18D",
"S  c #EAB18C",
"D  c #E9B18C",
"F  c #EAB28D",
"G  c #E9B08B",
"H  c #E8B08B",
"J  c #EDB58E",
"K  c #E8B08A",
"L  c #EFB68E",
"P  c #F0B78F",
"I  c #F0B590",
"U  c #EBB38E",
"Y  c #ECB38F",
"T  c #EBB38F",
"R  c #E9B18A",
"E  c #EDB490",
"W  c #EFB591",
"Q  c #EDB28C",
"!  c #EEB591",
"~  c #EAB28C",
"^  c #EBB18C",
"/  c #E9B18B",
"(  c #ECB28D",
")  c #ECB48C",
"_  c #F0B68E",
"`  c #EDB590",
"'  c #EBB18D",
"]  c #ECB28E",
"[  c #EFB790",
"{  c #E9B08A",
"}  c #EEB691",
"|  c #EFB48D",
" . c #F1B690",
".. c #EEB38C",
"X. c #EEB68F",
"o. c #EEB58D",
"O. c #EDB28E",
"+. c #EAB189",
"@. c #E9AF88",
"#. c #E8B088",
"$. c #E9AF89",
"%. c #EBB38A",
"&. c #E8B18A",
"*. c #F1B691",
"=. c #E9B088",
"-. c #F1B78F",
";. c #F0B891",
":. c white",
/* pixels */
"  . X o o o o o o o o o o o o o O + @ @ o o o o o o o o o o o o o o o o o o # # # # # # o o o $ .                               ",
". % $ o o o o o o o o o @ @ @ & + + * @ o o o o o o o o o o o o o o o o o O # # # # # # O o o $ = . . . . .                     ",
"X $ o o o o o o o o o @ * - - - ; ; ; * @ o o o o o o o o o o o o o o o O # # # # # # # # O o o $ X X $ $ X                     ",
"o o o o o o o o o o o @ * ; ; ; : > > , & o o o o o o o o O O o o o o O # # # # # # # # # # O @ @ @ o o o $ % . . .             ",
"o o o o o o o o o o o o @ * < ; 1 2 2 1 , * o o o o o o O # # O o o O # # # # # # # # # # # # + @ @ o o o o $ X $ X             ",
"o o o o o o o o o o o o @ * * : 2 3 4 5 6 ; & o o o o O # # # # O O # # # # # # # # # # # # 7 # @ @ @ @ @ 8 O o o $ %           ",
"o o o o o o o o o o @ @ * , 6 2 9 0 q w 2 > * e o o O # # # # # # # # # # # # # # # # # # # # # @ @ + # # # # O o o $ X         ",
"o o o o o o o o o o @ * ; 6 5 4 q r q q 9 2 : * O O # 7 # # # t t # # # # # # # # # # # # # # # O O # 7 # # # # O o o $ %       ",
"o o o o o o o o o o y * u i q p p a 3 3 3 9 i s t d f f # # t g g t # # # # # # # # # # # # # # # # # # # # # # # O o o $ X     ",
"o o o o o o o o o @ < ; 6 h j k p q 3 h 3 3 l z i x 2 x f t g g g t # # # # # # # # # # # # # # # # # # # # # # # # O o o $ % . ",
"@ @ @ @ o o @ @ @ @ < ; f 9 w q 4 3 3 3 9 5 i i i i f 2 h h i g t # # # # # # # # # # # # # # # # # # # # # # # # # # O o o $ X ",
"@ @ @ @ o o @ @ @ @ e * 6 2 9 9 5 i h h 5 i i i i i f i 9 3 i g t # # # # # # 7 7 d d # # # # # # # # # # # # # # # # c & o & O ",
"@ @ @ @ o o y < @ @ @ * c u 6 2 2 x x x x 2 2 2 x x i i 5 5 i g g t g t # # t f f x x d O O # # # # # # # # # # # # 7 c * * c # ",
"@ @ @ @ O & * < * O + + - c u 6 6 d 7 # d v v b 2 i i 5 5 5 i g g g g g # # t f d 6 6 7 & o O # # # # # # # # # 7 d 7 , n - , d ",
"o o o O 7 6 ; ; c 7 7 7 7 , , , 7 7 O & c u , > 2 5 3 3 5 5 i i m m g M # # # # + + - & o o N # # # t t t t # # f x 2 6 ; ; ; ; ",
"o o o O f 2 6 > 6 f f f 7 , - - 7 # @ o & - - , f 5 w w 9 5 i i 3 m i B # # # c & e y y o @ O # # # t t t t 7 d 2 2 V b > > > > ",
"o o o O f 5 V 2 2 x f f d c & & # # & o y * c # 7 f 9 w 9 5 i i i i i B 7 # d , * y @ @ @ @ @ O # # t t t t d 6 2 5 C C Z Z Z Z ",
"o o o O s 5 5 5 5 i x f d 7 & & c c O + * , 7 7 # t 9 3 5 i i i i i i 2 t d 6 > ; < @ @ @ @ @ @ O # t t t f v 2 V 9 A A A A S D ",
"o o o O s 5 V 5 3 3 i x f 7 * y & O 7 6 f s s s 6 6 i i i g g g g i C C i f 6 > ; * @ o y y @ @ o O # t x x C F F A A A A S G H ",
"o o o O J s 2 9 w 0 h x f 7 * y @ O 6 2 i i 5 i s f f g g g g g g g x 2 2 2 s 6 > - @ o & & & @ @ O # d d v C A A A A A S D K K ",
"o o o o + 7 s 9 w w h x f 7 * @ O # 7 f i i i i i f t t g g g g g t c c 7 f 2 2 6 , & o & & * - * - , , , u 6 b A A A S G K K K ",
"o o o o o + f 5 w w 9 i 6 7 + O # # 7 7 g i g g i g t t t g g g g t O o + 7 f 2 s d + O L c - - ; ; ; - - - u b C A A D G H H H ",
"o o o o o P 7 s 9 w 9 i 6 7 # # # # # 7 g g g g i i g t t # # t t # O o o O c > v f 6 d f t + * ; ; ; - y - , b C A D D D D S S ",
"o o o o o O 7 2 9 9 2 f 6 6 d 7 # # # # M g g h i h h g d # # # # O o o o o & ; 6 6 d 6 f f + @ * - - - y - , b C A S S A A A A ",
"o o o o o O 2 9 9 V 6 > 6 x x f 7 # # # t g m 0 0 0 0 h t # 7 # O o o o o o I - , c O + 7 7 O o @ & y < - ; ; > Z A Z U U Z A A ",
"c O o o o + 2 9 5 2 > , d f 2 f 7 # 7 t g i m 0 0 w w 3 t # # + @ o o o o o & - - & o @ + + @ o @ @ y & ; ; ; > Z Z Y Y Y T Z Z ",
"h t O o o O 6 2 5 i 6 , , 7 f f 7 7 f g i i g m w R R w i t O o o o o o o o o o o @ @ @ @ @ o o @ @ o & , > ; ; > Y E E E E E E ",
"0 h d O @ & , 6 s 1 d c + + 7 7 J f i i i i i i w R R 4 i t O o o o o o o o o o o o @ @ o o o o @ @ o O 7 6 , ; E E ; ; W < < < ",
"Q h 3 i 7 + ; ; ; ; - * @ @ P + f 5 5 5 C C i 5 w w 3 i g f 7 + o o o o o o o o o o o o o o o o o o o O 7 7 7 , E ; * & @ @ @ @ ",
"g m q 4 f , ; ! < < < < * @ o O f 5 5 ~ ^ ^ 9 9 w w 9 2 f f f 7 O o o o o o o o o o o o o o o o o o @ & + # 7 , E ; & o o o o o ",
"m 0 0 w C b ; < < < < < * * @ P 7 s ~ / w w w w w w ^ ( x f ) f O o o o o o o o o o o o o o o o o @ * * & O c ; ! ! @ o o o o o ",
"0 0 0 ^ S Z ; < < < < < ; - @ P 7 f 9 w w w w w w w ^ ( 2 2 5 2 + o @ @ o o o o o o o o o o o o o @ * * @ o * ; ; - & o o O O O ",
"0 0 h 9 w C ; < < < @ & - - @ O t i i h i 9 ^ S w w 9 i i 5 C b - y * * @ o o o o o o o y y y y @ @ @ @ o o @ * c c c _ O # t t ",
"0 0 3 3 / ~ ` < < y @ @ & & & O f i g g i i ( ^ ^ 3 9 5 5 9 ' ] - < ; ; & o o o o o o o y y y & * * [ @ o o @ O # # # # # # t g ",
"w w w R / ~ ` < e @ @ @ y & O # f g g g i i i i 5 9 C S S S S Z ; * , , & o o o o o o o o & & - , , ; * & O O O # # # # # # # t ",
"w R R / ~ V ; < @ @ @ @ y & c # t g g g i i g g i 5 A A w w A b ; ; , , & o o o o o o o o o & c 6 6 > , c _ _ c c c # # # # # t ",
"k { R ~ b : } y @ @ y < < * c # # t g g g g g g i 5 A A / S V 6 ; ; ; ; y $ o o o o & & o o @ + 6 2 2 s t | | # & & c # # # t g ",
"k { 3 2 u ; < < @ @ < < < * c # # 7 t g g g g i 5 9 F S ~ 9 1 , ; - ; - - &  .o o o & - & @ @ + 6 2 2 s f t t d , - c _ _ # t t ",
"k R f + ; ; < < < < - * & & O # t t 7 t ..g i i C F 9 5 2 1 > ; & & < - , c & $ o o y * + + * ; 6 6 6 f t t g 2 ] v O o o O O O ",
"p 3 X.@ ; ; < < < ; , , + O # t f f f x g i i 2 C C 5 2 6 , ; * @ o e * , u - & & & & * 7 7 , > 6 6 6 o.t t B i C O.c o o o o o ",
"m g + @ , , * < < , s s t d f i i i 3 q 0 9 2 f 2 2 2 2 6 7 * @ @ @ o & - , , , - - c , 7 7 6 6 6 6 s s t # t x x x d c & y y y ",
"t # + + 6 6 ; < ; 6 i 3 h h 9 5 5 3 R p R ~ 2 b 2 V 2 f 7 + * @ @ @ o @ * ; 6 v u , 7 7 7 6 2 2 s s 5 i 7 # t t x x d u & y y y ",
"O O + , 6 6 ; ; 6 2 9 0 q q q w w w j j R w F F S ~ 9 6 ; * * * < y @ @ < ; 2 h i f 7 + 7 6 2 5 5 5 5 i 7 # t x d d d u & y y y ",
"o o P 7 2 2 > > 2 9 0 q j j +.q w q j j j / S A S 9 2 > ; < ; ; < < & & * > h 0 i f 7 7 f 2 5 9 9 5 5 2 t d t x f d f d - & y y ",
"o o o c i 9 2 2 9 w r p p p p { q q p p p { S A V 6 , ; ; ; ; ; < < * c 6 2 0 h x f f i 3 4 q w ^ C 2 2 x t d d x i i f d c - - ",
"$ $ o + i 3 9 9 w R p p p p p p j q p p p r S C v , - < - ; ; ; ; ; , d 2 i 3 h x f i 3 3 q q w S ' 2 2 2 2 x x i i i x d d u c ",
". % $ O f 5 4 / R R p @.@.@.#.#.j j q q q 0 9 2 6 u - - < < ; : 1 s 2 2 i i 5 5 i 5 3 3 3 3 0 w S A 5 5 C ' 9 9 w 9 x d d d d v ",
"  . X O # f 3 R R R p $.@.p p j j q q q 0 h i f d 7 c & y y * , 1 2 5 5 5 5 5 5 5 5 4 3 l i 3 ^ S F ~ ~ S S w w w 9 x d d d x x ",
"  . $ o @ 7 i 3 w w q r { R 4 4 4 %.l 3 3 i f 7 7 # O o o o y - ; 6 2 5 3 q q 4 5 5 5 l l l 5 5 5 ~ 4 / / / / w 9 i i x x x x x ",
"  . X $ o O 7 2 9 w S w q w 5 5 5 5 5 i i f 7 , 7 c & o o o $ y - u x 3 q q j q 3 5 5 5 l l l 5 5 ~ / / &.R w 3 i i i h ( x x x ",
"      % $ @ O 7 2 9 9 9 0 0 9 5 s f f s 2 2 , ; - - & *.o o o & c d x l q j =.j 4 5 5 5 4 q w w 4 / / / / w 3 i i i C ' ' ( x x ",
"      . X o @ + 6 b 1 2 ( h 5 2 6 , , 6 6 6 > ; - & y y @ o @ O d x i 3 R k #.j 4 5 5 3 q q w ~ S / / / / w i g g i ' ' ' ' x x ",
"      . X o O + , , , > > 6 2 1 , < * ; 6 6 6 , & o @ @ y < * , 6 2 h w p k k j 4 5 5 4 q w i 2 F S / R / w i g g i ' ' ' ' x x ",
"    = X o o + + , ; ; ; ; ; 6 6 ; < < ; > 6 6 7 + & & * < < ; > b 2 9 0 R R R w 9 5 5 5 4 4 2 b C D R R 4 9 i g g i ' ' ' ' ( x ",
"  = @ O o o O , , , ; < < ; d 6 6 , ; ; > 6 6 6 7 7 7 , ; ; ; > b 2 2 9 9 9 2 2 2 2 2 2 5 5 2 2 4 R R 4 i x g g i i ' ' ' ' ( x ",
"  = c # O o P + , , ; < < * c 7 u , ; ; > 6 6 6 6 6 6 6 > ; ; , 6 f 6 f f 6 6 6 f 2 2 2 6 6 2 i 4 R R 3 x d t g i 9 ' ' ' ( v d ",
"  X 7 t O o @ * * ; ; ; < < & & * ; ; ; > 6 2 2 6 6 2 2 6 , , + , , , 7 7 7 7 7 7 f 2 b , ; 6 2 5 4 4 5 f d 7 t ( ' ' ' ( v u c ",
"  X 7 t O @ @ @ * * * * < e o o e < * ; > s 2 2 6 6 6 6 6 , + + + + + + 7 7 7 7 7 7 6 7 * * , 6 s s 5 2 6 d # d ( ' ] ] v d - - ",
"  = + 7 # O @ @ + + & @ @ o o o o o @ & , 6 2 2 6 6 > , ; , + + + + 7 7 7 7 7 7 + + + * @ @ + , 7 J s 2 6 d d d x x u u u - - - ",
". X + 7 # + @ P # # 8 o o 8 8 8 -.-.o O 7 6 f f 6 6 , , : , , + + L 7 7 7 # # + @ @ @ o o o O + + , 6 f d d d d d d u c c c u u ",
"X @ 6 f + @ @ O # # 8 o O # # # # N N # # 7 7 7 7 7 6 6 s s 7 7 7 7 7 7 + @ @ @ o o o o o o o @ + + 7 7 # # d d u u d d v v v v ",
"@ + f f + @ @ @ + O o o O # # # # # # # + # # # 7 7 t f s f , + + + + + @ @ @ @ o o o o $ X X $ @ & # # # # d d - c d x x x t t ",
"+ 7 f s 7 + @ @ @ @ = = @ O O O O O O @ @ O # # # # # # + [ ;.= = X @ @ @ @ + + @ @ @ $ = . . . = $ O # # # t d O O d x x t # c ",
"7 f i i f 7 @ @ @ X . . X @ @ @ @ @ @ @ @ @ # # # # # L @ X .     . X @ @ + 7 7 + @ @ e .         = O # # d x d O O d x t # O O "
};
