/* XPM */
static char *_03813fba3fd4874c2b1acafe74e59badFaceLP9IJJ0jTzF[] = {
/* columns rows colors chars-per-pixel */
"64 64 82 1 ",
"  c #92AA7F",
". c #94B17F",
"X c #DFA47F",
"o c #E0A47F",
"O c #95AD82",
"+ c #98AF86",
"@ c #96B283",
"# c #99B385",
"$ c #9DBB86",
"% c #9CB58A",
"& c #9EBA8A",
"* c #ADBE87",
"= c #A1B68A",
"- c #ACB689",
"; c #A1BC8C",
": c #ADBC8A",
"> c #BCB387",
", c #BFB987",
"< c #BDB688",
"1 c #B1BB8A",
"2 c #BFBE89",
"3 c #C3AF84",
"4 c #CEAC82",
"5 c #DFA681",
"6 c #D4AE83",
"7 c #DFAB84",
"8 c #C5B485",
"9 c #CFB083",
"0 c #C1BE89",
"q c #D2B083",
"w c #E1A781",
"e c #E3AC85",
"r c #E7AE88",
"t c #E8AF88",
"y c #EBB18B",
"u c #ECB28C",
"i c #EDB48E",
"p c #F0B68F",
"a c #EFB590",
"s c #F0B790",
"d c #F3B993",
"f c #9FC089",
"g c #A1C386",
"h c #A2C08B",
"j c #A0C488",
"k c #A0C08C",
"l c #A4C08D",
"z c #A3C68C",
"x c #A3C78C",
"c c #A3C68E",
"v c #A5C78E",
"b c #A8C38D",
"n c #ADC38C",
"m c #AFC38C",
"M c #A7CA8D",
"N c #A4C98E",
"B c #A6CC8E",
"V c #A8CB8E",
"C c #A9CC8E",
"Z c #ACCC8F",
"A c #B2C087",
"S c #B3C18B",
"D c #B6C38B",
"F c #B0C48B",
"G c #B1C38C",
"H c #B0C48C",
"J c #B2C78D",
"K c #B4C48C",
"L c #B7C58C",
"P c #B8C68C",
"I c #B4C98D",
"U c #BACC8D",
"Y c #ABD18F",
"T c #ACD28F",
"R c #A7CB90",
"E c #A6CD90",
"W c #A7CE90",
"Q c #A8CE90",
"! c #ACD291",
"~ c #AED892",
"^ c #B0D891",
"/ c #C2C08A",
/* pixels */
"%%%%%%%%%%%%%%%%%%%%%%%%%%%%;;%%&&%%%;kvvl&&kk%#%%%%%%%##%%%%%%%",
"%%%%%%%%%%%%&%%%&&%%%%%%&&%&;;%%&&%&&&$kll&%;k;&&%%%%%;;;;%%;;%%",
"%%%%&$&&;;&;;;&;kl;;&&%&ll;;kk&%%%&$$$##;;&%;kvck;%%%;V!!V&;VV;%",
"%%%&$$k;:1111:;kkkk;&%%&vv;;kk&%%%&$$$@#&&%%;bSD1:;%%&NYTN&;CV&#",
"%%&$%&cH844448Gc&&k;#@$$h;%%;;%%%%%&$$$$@+#&cH8668:&%%&$g$%&hh#+",
"%&$$$;m06wwwX6KN$&;&OO$hjh$;k;%%%%&$ffh$##&;G06wo61k&%##@@##$$##",
";;kcNH86ettew6KWNh%+ OfNBBNNRv&%&;kvccNchkcm86eew6DNc;%#O $$.@hN",
"1111K06eyiiye60HZv&#@#:DPPKKKG;&klGDD1DDDSK06euyw4KZF:;%O@$$@$SU",
"444446eyssssye68HWckcm86666668GWWH8664444446eysiw9IH88:k&&fjcm86",
"www5weysddddsye60KSSK06wwwwww60KI/6wwwwwwwweusdse600660ml;*AK06w",
"treeeysddddddsue644446etrrrrre64q6errrrrrrrysddsye66ee68mm846qet",
"iuyyuisdddddddsuewwwweuaiuuuutewweyiuuuuuuiisddsiyeeyye6226wweyi",
"iiiiisssdddddddsytttyusdssaiiiteeyisssssssassssdsityaat766eeeysd",
"ssiissssddddddddiiiiiasdsssssiiuuissdddsssssssssssaissirwwryyisd",
"ssssssssddsssdssssssssssssiissiissddddssssssssssssssssiyrryiiiss",
"ssssssssssssssssssssssssssiissssssddddssssssssssssssssiiyyiiiiii",
"sssssspississsssssssssssssspssssssssssdsssssssssssssspiiiiiuuiii",
"ssssssiiiiiisssssssssspsssssssssssssssdsssssssssssssssiiiiiuuiii",
"dsssssiiiiaaaasssssssssssssssssssssssddssssssssssssssssssiiiiiii",
"dddsssiiiiaaiiipssssssssiasssssssssssddsssssssssssssssssssiiiiii",
"ddssssiisaaiiiiiiaaassssiisssssiaasssddsssssssssssssssssssiiiiii",
"ddssssiiaaiiuuuuiaaasssspippssiiaisssddsssssssssssssssssssiiiiii",
"ddsssspiaiiuuuuuiaaassssssssssiiiisssddssssssssssssssssssssssssa",
"ddssssiiaiiuuuuiiaaasssssssssssiassssddsssssssssdssssiiiisssssss",
"ddsssssaiiuuyyiiiasssssssssssssssssdddssssssssssdsssiiiiiissssds",
"ddssssiiiiuyyyiiiasssssssssssdssssddddssssssssssssssiiuuiiisssdd",
"ddssaiiiiiuyyyyuiiaassssssssdddsssssdsssssssssssssssiiuuuiisssdd",
"ddssaiuuiuuyyyyuiiiiisssssdddddsssssssssddssssssssiaiiiiiiisssdd",
"dssssiiuuuyyuuyyuuuiiisssdddssssssssssssssddssssiiiiiippaasssdsd",
"dsssspiuuuyuuuyyuuuuiassssdssssssssspiiissddssiiiiiiiissssssssss",
"dsssspiiuuiiuuuuuuuiaasssssssssssssaiiiiiassspiiiiiiiissssssssss",
"dsssspiuuiiuyuuiiiiiasssssssssssssaaiiiuiiaapiiiiiiiiiissssssddd",
"dsssspiuuuyyuuiiippsssssssiissssssaaaaaauiipsiuuiiiiiiiipssssddd",
"dddsspiuuuyyyuiassssssssspiipsssssaasssaiisssiuuiiiiiiiipssssddd",
"dddsssiiiuyyyiiasssaassspiiiiasspiaasssspsssspiiiiiiiiiiisssdddd",
"ddsssssaiiuuuiiassaaassspipiiiispiaasssspssssssspiiiiiiiisssdddd",
"ddsssssaaaaiiiiaaaaassssssspiiiissssassssassssssssiisiiipsssdddd",
"ddssssssaaaaiiaaaaassssssssspiiipsssaasssssssssssspissipsssddddd",
"dsssssssaaaassssssssssipssssssspiisaaaasssssssssssssssssssdddddd",
"ddsssssssaaassssssssssppssssssspiissaasssdsssssssssssssssddddddd",
"ssssppsssaiissssssssssssssssssssssddddddddddssssssssssssdddddddd",
"ssssppppiiiissssssssssssssssssssssdddddddddddssssssssssddddddddd",
"ssssspiiiiiissssssppssssssssssssssddddddddddssssssssssdddddddddd",
"ssssssiiiiiissssssiissssssssssssssdddddddddddsdssssssddddddddddd",
"ssssssspssasssssspiissssssssssssssdddddddddddddddddddddddddddddd",
"dsssssssssssssdsspiissssssssssssssdddddddddddddddddddddddddddddd",
"ddssssssssssssdssspsssssssssssssssdddddddddddddddddddddddddddddd",
"dddssssssssssssssssssssssssssssssssddddddddddddddddddddddddddddd",
"ddddsssssssdddssssssssssssssssssaiisddddddddddddddddddddaasddddd",
"ddddsssssssdddssddddddssiiiisssiuytysddddddddddddddddddsyysddddd",
"dddddddsssssdssddddddddsiuuissiyewweysddddddddddddddddsueeysdddd",
"dddddddddsssssssddddddsayeeyiaye644qeysssddddddddddddsue66eyasdd",
"iiisdddddsaiiiiiisdddsayewweyye6<1K/6euaisddddsiiiiiaye6226etuss",
"tttyssssssyttttttysddsue6446ee68:kNH86etyyssssytttttye68mm867eyu",
"wwweuiaaiyewwwwwweysdse6>::<66,:;%&;H06wweyiiyewwwwww6<:;;->6www",
"446qeyytte64qqqq46eusiw41cc:88:k;;;kNH8666ette64q64448:&%%&:8644",
"-1K/6wwww6>1KUUUK06euyw6SNNb:-;kQ!!Vk;GKK06ww60KKKS11:;%%&cVH11-",
"%&QI844443:cB!~!Qm86ee68:jvvh&&;NT^!;&vBNG8668HWNNNvvk%%%&hjjh&%",
"O$C!:----:bv$h!!v;:<66>-##$hf$&%$gT!;%fh$;GPPIZv&$cNNl&%&$#@@@O+",
" #NCk&&&&;Nv$$NN;&&:33-%#@#$$$## @cN;%$$%&vNNNNh##$hvv&&$$@O OOO",
" @$jf$&%%&vv$$$%%%&;--=%###@@##@  #%%%%&$$$&&;;;%#O@$h$$###+OO##",
"O@#$$$&%%&;h$$#+#%&;&&%%%##++###OOO+#%%%&&%%%%&&%#OO@$$$####++#%",
"####$$%%%%&&%%###%;;%%%%%%####%#####%%%%%%%%%%%%%##+OO@###%%##%%",
"%#+@$$%%%%%%%#%%%%;;%%%%%%%%%%%%%%%%%%%%%%%%%%%%%%%#O O##%%%%%%%"
};
