/* XPM */
static char *ca4931361cec497da0a78fb6f215ec38JltnsLgcLGsl6XWi[] = {
/* columns rows colors chars-per-pixel */
"64 64 135 2 ",
"   c #8FA87D",
".  c #93AE7F",
"X  c #95AE83",
"o  c #99AA85",
"O  c #9EAF8A",
"+  c #97B184",
"@  c #99B386",
"#  c #9DBB87",
"$  c #9CB48A",
"%  c #9EBA8A",
"&  c #A5A58B",
"*  c #ABA38F",
"=  c #A6AC8C",
"-  c #A9AB8D",
";  c #A5B38C",
":  c #A9B58E",
">  c #A2BD8C",
",  c #AABA8F",
"<  c #ADA692",
"1  c #ADAC92",
"2  c #B0A794",
"3  c #B2AA96",
"4  c #B4AE9A",
"5  c #AEB094",
"6  c #A5BE90",
"7  c #ABBD90",
"8  c #B1B296",
"9  c #B6B19D",
"0  c #B9B29E",
"q  c #B7B2A0",
"w  c #BBB5A2",
"e  c #B7BAA1",
"r  c #BDBAA5",
"t  c #BEB7A9",
"y  c #BFBBA8",
"u  c #C1BAA6",
"i  c #C3BCAC",
"p  c #C5BEB0",
"a  c #A3C38C",
"s  c #A9C58E",
"d  c #A7C98D",
"f  c #A9CB8F",
"g  c #AAD28F",
"h  c #A6C190",
"j  c #ADC392",
"k  c #ADCA93",
"l  c #B0CB96",
"z  c #B3C39B",
"x  c #B4CC9A",
"c  c #B8C99F",
"v  c #ADD291",
"b  c #B0D892",
"n  c #B6D19D",
"m  c #BBCEA2",
"M  c #BEC0A8",
"N  c #B9D0A1",
"B  c #BDD5A2",
"V  c #BFD0A5",
"C  c #BFD9A3",
"Z  c #BFD8A4",
"A  c #C6C1AD",
"S  c #C9C2AE",
"D  c #C6C8AF",
"F  c #C0DBA3",
"G  c #C0DCA3",
"H  c #C2D4A9",
"J  c #C6D9AC",
"K  c #C7C1B1",
"L  c #CBC4B3",
"P  c #CFC8B6",
"I  c #CDC6B8",
"U  c #CFC9B9",
"Y  c #D2CBB6",
"T  c #D8CFB7",
"R  c #D2CCBC",
"E  c #CED7B5",
"W  c #CAD8B1",
"Q  c #CBDCB0",
"!  c #CED9B4",
"~  c #D7D0BE",
"^  c #DAD2BE",
"/  c #D2DBBA",
"(  c #D3DFB9",
")  c #D4DDBB",
"_  c #D7DABE",
"`  c #E0D7BF",
"'  c #D5E0BA",
"]  c #D9E1BF",
"[  c #D5CFC0",
"{  c #D7D1C2",
"}  c #DBD4C3",
"|  c #DFD8C5",
" . c #DEDFC5",
".. c #DDD7C8",
"X. c #DED9C8",
"o. c #E0D7C1",
"O. c #E3DBC5",
"+. c #E8DFC6",
"@. c #E3DDCA",
"#. c #E8DFC8",
"$. c #DEE1C3",
"%. c #E1E3C7",
"&. c #E2E6C7",
"*. c #E3E5CA",
"=. c #E5E4CA",
"-. c #E6E0CD",
";. c #E2E5CC",
":. c #E4E7CE",
">. c #EAE3CE",
",. c #E3E9C8",
"<. c #E4E8CA",
"1. c #E7E8CC",
"2. c #E9EACF",
"3. c #F0E7CF",
"4. c #F0E8CF",
"5. c #E7E2D1",
"6. c #EAE2D1",
"7. c #ECE5D1",
"8. c #ECE5D4",
"9. c #EEE6D5",
"0. c #EEE7D5",
"q. c #E8E8D1",
"w. c #EFE8D5",
"e. c #EDE7D8",
"r. c #EEE9D8",
"t. c #F1EAD4",
"y. c #F1EBD7",
"u. c #F2ECD7",
"i. c #F3ECDA",
"p. c #F5EDDC",
"a. c #F4EDDD",
"s. c #F5F0DF",
"d. c #F7EFE1",
"f. c #F6F0E1",
"g. c #F5F1E2",
/* pixels */
"$ % a a $ $ % % $ $ $ $ $ $ $ $ $ $ $ $ $ > f v b v > $ $ $ $ $ $ $ $ $ $ $ $ $ $ $ $ $ $ $ $ $ $ $ $ $ $ $ a a % $ $ $ $ $ $ $ ",
"$ % a a % % > > % $ $ $ $ $ $ $ % $ $ $ $ > f v v f > $ $ $ $ $ $ $ $ $ $ $ $ $ $ $ $ $ $ % % $ $ $ $ % % > a > $ $ $ $ $ $ $ $ ",
"$ $ a a a a > > > % @ @ $ $ $ % a > @ X $ > d f d a > $ @ + $ $ $ $ $ $ % > > > $ $ X @ % a d a @ @ > a a a a % + @ # > $ $ $ $ ",
"% > a a # # % % % $ @ X @ $ $ 6 l l > @ $ $ > a a > > % @ @ $ % % $ $ > z x j a % $ @ @ > d f d @ @ > d f d d # @ > l x h % % # ",
"f f f a + . X X X X @ @ X X % z E ! x a % $ @ @ # a a a a > a a a a a l / ) n d a a # > a d d a $ $ $ > f f f d a x ( ) x a d f ",
"G F C x % X X + X @ % % X X # m  .=.Q n h $ @ @ > d k k x N N N N N N W 2.=.B d a a a a > > > > $ $ % h n C C C B Q 2.2.Q B C G ",
",.<.<.( x a # # # a f d $ @ > m %.u.2.( l a a a a k n J ] *.:.:.;.;.;.q.i.*.N a % % a a % $ $ $ $ % a x ' <.<.*.&.1.u.u.1.&.,.,.",
"9.9.9. .V k d d a d f f > % a x _ 6.9. .m j j j j z m ! :.p.d.f.p.p.p.p.i.%.N d > > a a > % > > > > j m  .9.9.9.y.i.y.y.i.y.9.9.",
"} } } R A z k d d a d d a a d j A U } R A e e e e e r L @.9.i.i.9.9.9.9.7.$.Z v f d f f d f k k k k z A R } } X.>.7.7.7.7.>.X.{ ",
"R R R U K y z k d d d d j j j z r p I I p i i i i i t K | 7.9.9.7.>.>.>.6. .H x l k k j j l x x x c y p I R R { @.>.>.>.>.@.{ U ",
"R R [ { [ I y z k f g k z e e r K I U U I I I I I K i K | 7.7.7.>.>.>.>.7.| D e e e e e e e e e e M L I U R R { @.>.>.>.>.@.{ R ",
"R R { } ..} I A z k l c A K K I R } } [ R R R R R I i K | 7.>.>.>.>.>.>.>.} K t i p K K K K p i i K U [ { R U R @.7.>.>.>.@.{ R ",
"R R { ..@.@.@.~ A e e A ~ O.O.O.@.@.@.| [ R R R R I i K | 7.>.>.>.>.>.>.@.~ i i I [ } O.O.} [ R R R [ } @.} K I O.7.7.>.>.@.{ R ",
"R [ } @.-.7.7.@.Y K K Y @.7.7.7.>.>.7.@.} { { { R I i K | 7.7.>.>.>.-.@.| R i i R X.-.7.7.>.@.} } } ..@.>.@.I K ~ @.>.7.7.@.R I ",
"{ } @.-.6.>.7.>.@.| | @.>.7.>.>.>.>.>.>.@.@.@.X.{ I i K | 7.7.>.6.-.@.} } R i i R X.-.7.7.>.-.@.} } @.>.>.@.R I K Y @.7.7.O.I i ",
"{ } @.6.>.>.>.>.7.7.7.7.7.7.7.7.7.7.7.7.7.>.>.@.{ I i K | 7.7.>.6.-.@.} } R i i R X.>.7.7.7.7.>.@.@.6.7.7.-.} I i K ~ O.O.~ I i ",
"R { X.-.>.>.>.>.>.>.>.7.9.y.y.y.y.y.y.y.7.6.-.X.{ I i K | 7.7.>.>.>.-.@.| R i i R X.7.u.y.y.y.9.-.>.9.u.i.6.{ U I I K K K I R R ",
"R [ } @.@.>.>.>.>.7.7.9.i.i.9.9.9.9.9.9.7.@.@.} [ I i K } -.>.>.>.>.>.>.@.~ i i U ..7.y.9.y.i.i.9.9.i.p.i.6.{ R [ U K i i I [ } ",
"{ { [ { X.@.@.@.>.7.y.i.i.y.7.-.-.-.-.-.@.@.} [ R I i i Y } @.7.>.>.>.>.>.} K i U } @.5.-.7.y.p.i.i.s.p.9.@.{ R { { [ R R [ { } ",
"{ { R R } X.X.@.@.7.9.9.9.7.@...} } } } X.} [ R R I i i I [ | @.>.>.>.7.7.O.K i U { ..X.| @.-.7.9.i.p.e.@.} R [ { { { { { { } } ",
"{ { R R R [ [ } @.@.-.-.-.@.{ [ [ [ [ [ [ R R R R I i i I R [ } @.7.7.7.7.O.L i U { { { { [ } } @.5.5.@.{ R R R { { { { { { { { ",
"{ { [ [ R R R [ } X.@.@.@.| [ R R R [ { [ [ R R R I p K R { R [ | @.@.@.@.} K i U [ { { [ R R [ } @.@.} [ R R [ } ....} } } } ..",
"{ { { { { [ R R R } X.@.@.X.[ R [ } @.@.} } { [ R U I R | @.[ R [ { { { } R i i I [ } } { [ R [ | @.@.| [ R [ } @.@.@.@.@.@.@.@.",
"........X.} { R R [ | @.X.} R R { X.@.-.@.X...{ { R R R } } } { { [ R R R I K K I [ } } { { [ { } X.X.} { { ..@.6.7.7.6.>.>.>.>.",
"@.@.@.-.7.>.} R R R } X.{ R U R { X.@.@.@.@.@.X.} } R I K I } @.@.} R U U R R R R [ } } { { { { { { { } } @.6.9.y.y.>.>.>.>.>.>.",
">.>.7.7.u.9.@.[ R R } } R U R } @.@.-.-.@.@.X.X.X.} { I y i } >.>.@.} R Y U Y R R R } } { { } } } } } } } | 7.p.p.y.7.>.>.>.>.>.",
">.>.w.y.p.9.@.{ R Y R R U [ @.6.7.9.y.7.@.} } } X.X.} R i i } >.>.>.@.} R I i i I R } } [ [ } | @.@.@.{ K Y >.p.p.p.y.w.>.>.>.>.",
"7.7.y.p.y.>.} R R R R R U } >.y.p.p.p.y.@.| { { } X.X.R i i ~ @.>.>.7.-.} R L I R } [ R R R { } @.@.@.R i i @.y.y.y.u.y.7.>.7.7.",
"y.y.p.y.7.| I K U [ [ R R } >.u.p.p.p.i.7.@.} { } } } R i t I } @.>.w.9.7.-.@.@.-.@.R I U Y Y R } } } I y i } -.@.>.y.u.y.y.y.y.",
"9.9.9.6.| R K K R } } { { } >.u.p.f.s.i.y.>.} [ [ { } R K S U } @.>.w.y.i.i.i.p.i.6.} Y U I I I R [ R I i i U } | @.7.9.9.9.9.9.",
"@.@.@.} L i I R } } } { { } >.y.p.s.s.i.y.>.} [ { [ R R } } O.@.@.>.>.7.p.f.f.f.p.r.6.X.R I K I I I U I K i i K } @.@.@.@.@.@.@.",
"X.X.@.~ i y U } } } } { [ } @.7.i.i.i.i.7.>.| } { R U R @.>.>.>.>.>.>.7.p.f.f.f.p.i.9.@.R K K I Y R { R I S i i U } } X.X.X.| | ",
"X.X.@.~ i y Y } } } } { Y R } -.7.y.y.w.>.>.@.O.} R P R O.>.>.>.7.y.y.y.p.p.s.p.p.i.7.@.R I I R O.>.>.O.Y K I L i S ~ O.@.| | | ",
"@.| } U i i R } } } } { U Y } @.>.7.7.>.>.>.>.O.~ Y I Y } O.#.>.7.y.y.y.y.i.i.p.p.y.>.} P K K R >.u.u.>.~ R } R i i Y } R ~ } O.",
"@.} K i I Y { } } } } { U Y } @.@.@.@.@.@.>.>.O.R I I U Y ~ O.>.>.>.>.>.>.7.y.u.u.y.-.~ i t i R >.u.u.y.>.-.>.@.R I I K i S ~ @.",
"R I i i U { { } } } } R I I Y R R ~ } O.@.@.@.| Y I I I K U } @.>.>.>.@.>.>.>.4.7.>.} I i t i R >.u.u.y.y.y.w.>.} R I i y i P R ",
"w t S I Y R R ~ } } R I K i i t i K ~ | O.O.O.} Y I I I i K ~ O.@.@.@.@.@.@.+.O.@.} S t i K I } >.y.y.y.y.y.y.>.} R Y U I K i t ",
"9 t L R R R R ~ } } R I S i q q t S R | } | } } U I U I i i R O.+.+.@.+.O.| ^ ~ R I t t S I U ~ -.y.y.y.y.y.7.>.} R R R R I i w ",
"K I Y R ~ { { } } } R I K i t i P ~ ~ ^ } | | } U I Y I t i R O.O.O.+.+.} ~ R L i y i S K K K Y O.>.y.y.y.7.>.@.} R R R R Y I I ",
"} } R R } } } } } } R U P K i i Y ~ ~ ~ R R } } P I Y I w w L ~ } O.+.O.~ Y Y S q q K I I K i K R ^ | +.>.>.>.O.} ~ } } } } } } ",
">.@.} R } } } } } ~ U U R R K i i L ~ R i i R ~ P I Y I w 3 q i R O.+.O.~ Y P S 0 q K Y I K K i i t u L | >.+.O.| | O.@.O.@.-.>.",
"y.>.} R } } } } } ~ U Y } } Y S i i Y L w w L Y L I U I t 4 3 w Y O.+.O.^ R R S q q I Y I K K i 9 3 q S ~ O.} } | O.@.>.>.>.7.y.",
"y.>.} } } } | O.| } Y Y } } ~ Y K i i i w 0 w t i K I I K i 4 w R O.+.+.O.o.} Y w q L Y I K K i q w L R } } R Y } O.>.>.7.7.y.y.",
"y.>.} R } } } | O.} R R ~ } ~ R L i i i i u w t S I I I U L t t L ~ o.+.+.o.~ L t t L U I K I L i S ~ O.o.~ K S R } O.@.>.>.>.>.",
">.@.R I Y R ~ } } } ~ R R Y Y P L K K L P Y I I I P U Y Y Y I i t i R O.O.~ i t i K L K K I ~ } ^ ^ o.+.+.~ i t I R R ~ O.+.+.+.",
"O.} P L Y ~ } } O.} ~ R Y I I I L L P Y R ~ } ~ R R R R R R Y K w w S Y Y S w w L Y L S S Y } +.+.+.+.+.+.~ t q K Y I I R ^ ^ ~ ",
"Y P K I ~ O.>.>.>.@.~ Y Y I I I I U Y R R ~ } } } } } } ~ R R I i t w 0 q w t i I Y K S S P } +.+.+.+.+.+.~ w 0 K I S i I P P P ",
"i i i I ^ +.>.y.y.>.} ~ ~ ~ R R ~ R Y P Y R } | O.O.@.O.o.} R Y I i q 4 4 w i I I I L K S I } +.+.O.o.O.+.R w 0 K I i i K K i i ",
"w t i L ~ o.+.>.3.4.>.>.>.>.>.>.>.O.Y S K Y } @.>.>.>.>.>.O.~ R Y L i i i K I I K K I L S L ~ | | } ^ ^ } Y r w K I i i L K t q ",
"t u i L R } o.+.>.y.y.y.y.y.y.y.y.=.Y i i S Y ^ >.y.4.4.>.>.} R R P K S I P I L S S I I K S L Y P Y ~ ^ ^ Y t w K I S S I L i w ",
"K K S L R } o.+.3.y.y.y.y.y.y.y.y.+.Y i i i w i O.4.y.3.3.>.} R R Y K i S S K S i S I I K i w 0 9 u Y ^ ^ Y u t K Y I I P P L K ",
"Y I K S L Y ^ +.>.>.>.>.>.>.>.>.4.+.Y i S i 4 w Y o.>.>.>.+.~ R R Y L S i i i i S K P I i w 4 < < 3 A Y ^ Y i u L I K K I Y Y Y ",
"P I K i 0 u Y o.o.o.+.=.+.+.+.+.>.o.L i K K i w 0 i ^ >.>.o.R Y Y Y I K i t w u K I U K 0 3 9 4 < < 3 u Y R i i L K q q K Y I P ",
"P L i 0 5 8 A Y ~ ^ ` o.o.o.o.` ~ Y S i I I K i 9 0 S T T Y Y I I I I K S i i S L L S t 8 5 9 0 4 3 < 3 S L u t i t 8 8 t K I I ",
"Y S 0 5 j j 8 w Y ^ ^ ^ ^ ^ ^ Y u 0 u S I I I K S i w 9 9 w K I Y I S L Y ^ ^ R L i 0 8 j j 5 4 i u 3 1 0 w 0 4 4 8 j j 8 q K Y ",
"i t 8 : j j : 8 A Y Y R ~ ~ Y A 8 1 0 i K P P P Y i 3 * - 8 t i K K i L ^ O.+.~ i 9 1 : k k - 3 u i 4 1 < 3 3 < 1 , f f , 8 t i ",
"3 1 , > > > a 7 8 0 i L ~ Y w 8 7 7 1 9 i P P P P i 3 - : 7 1 4 w u i S ~ } } Y 0 1 , s k s - < 2 4 9 4 < * * 1 j f d d f j 8 3 ",
"- = > # $ % a a ; 1 9 u S A 8 : s s : 8 r i i i i w 2 - > a ; 1 3 0 w u S L L u 3 - > f d s : - - 1 4 4 1 - - : f f d a f s : & ",
"> > @ @ % % @ # a 7 1 3 3 8 j f f f f j 8 3 3 3 3 2 * - > d a : 1 < < 3 3 4 4 3 * - > d a a > > s , 1 1 , s s s d d > # d d > > ",
"# # + @ % % @ @ a a = & & = s f d d f s ; & & & & & - : > d d > = & & & & & & & & = > > # % > a d > = = a d d a a % $ $ # a a a ",
". + @ % > % % $ % % $ O O $ > a a a a > ; O O O O ; > a a a d > @ o O O O O O O O $ @ @ @ @ $ $ % > $ $ % % % @ + X X + $ % % % ",
"  X @ % % % % $ $ $ $ $ $ $ % % % % % % $ $ $ $ $ % a a > # > # + X $ $ % % $ $ $ $ @ X @ @ @ $ $ $ $ $ $ $ @ X X X X X $ $ $ $ ",
"X X X + + @ $ $ $ $ $ $ $ $ % % $ $ $ $ $ $ $ $ $ $ @ @ @ @ @ @ @ $ $ $ > > $ $ $ $ $ $ $ $ $ $ $ $ $ $ $ $ $ $ $ @ $ $ $ $ $ $ ",
"X X X X X X $ $ $ $ $ $ $ $ % % $ $ $ $ @ @ $ $ $ $ + X + + X X $ $ $ % a a % $ $ $ $ $ $ $ $ $ $ $ $ $ $ $ $ $ $ $ $ $ $ $ $ $ "
};
